<svg id="footer" width="153" height="111" viewBox="0 0 153 111" fill="none" xmlns="http://www.w3.org/2000/svg">
<g clip-path="url(#clip0_822_10278)">
<path d="M2.05885 96.1531C2.14046 96.1531 2.21873 96.1206 2.27643 96.0626C2.33414 96.0047 2.36656 95.9261 2.36656 95.8442C2.36656 95.7622 2.33414 95.6837 2.27643 95.6257C2.21873 95.5678 2.14046 95.5352 2.05885 95.5352C2.01945 95.5344 1.9803 95.5416 1.94379 95.5565C1.90728 95.5714 1.87418 95.5936 1.84652 95.6217C1.81733 95.6486 1.79402 95.6814 1.77808 95.7178C1.76214 95.7542 1.75391 95.7936 1.75391 95.8334C1.75391 95.8732 1.76214 95.9125 1.77808 95.9489C1.79402 95.9854 1.81733 96.0181 1.84652 96.045C1.87224 96.0771 1.90448 96.1034 1.94109 96.122C1.9777 96.1406 2.01784 96.1512 2.05885 96.1531V96.1531Z" fill="#171717"/>
<path d="M3.08883 96.1542C3.12801 96.1548 3.16688 96.1471 3.20292 96.1317C3.23896 96.1162 3.27138 96.0934 3.29807 96.0646C3.35173 96.0073 3.38161 95.9316 3.38161 95.853C3.38161 95.7743 3.35173 95.6986 3.29807 95.6413C3.27123 95.6129 3.23871 95.5905 3.20265 95.5756C3.16659 95.5607 3.1278 95.5536 3.08883 95.5548C3.0096 95.5551 2.93354 95.5861 2.8765 95.6413C2.82284 95.6986 2.79297 95.7743 2.79297 95.853C2.79297 95.9316 2.82284 96.0073 2.8765 96.0646C2.93306 96.1209 3.00917 96.153 3.08883 96.1542V96.1542Z" fill="#171717"/>
<path d="M16.2976 99.6357H15.5776C15.4521 99.6443 15.3263 99.6243 15.2096 99.5773C15.0929 99.5302 14.9883 99.4572 14.9037 99.3638C14.7346 99.1354 14.6527 98.8537 14.6729 98.5698V96.9108H14.1775V98.576C14.1961 98.8571 14.1238 99.1366 13.9713 99.3731C13.9035 99.4613 13.8156 99.5318 13.7148 99.5786C13.6141 99.6254 13.5036 99.6471 13.3928 99.6419H12.5496V96.9108H12.0573V99.6419H11.011C10.8701 99.6525 10.7286 99.6344 10.5948 99.5888C10.461 99.5431 10.3378 99.4708 10.2325 99.3762C10.0464 99.1532 9.95476 98.866 9.97711 98.576C9.982 98.2394 9.897 97.9076 9.73094 97.6152C9.56985 97.333 9.33318 97.1018 9.04781 96.9478C8.73928 96.7864 8.39559 96.7047 8.04773 96.71C7.60012 96.6996 7.15898 96.8186 6.77685 97.0529C6.41791 97.2755 6.13052 97.5973 5.94909 97.9797V95.3691H5.46906V99.6326H4.90286C4.76192 99.6437 4.62019 99.6259 4.48633 99.5803C4.35247 99.5346 4.2293 99.462 4.12433 99.3669C3.93597 99.1451 3.843 98.8573 3.86585 98.5667V96.4041H3.37042V96.7656C3.16695 96.732 2.96118 96.7145 2.75499 96.713C2.39755 96.7066 2.04289 96.7772 1.71491 96.92C1.41903 97.0508 1.16768 97.2656 0.99177 97.5379C0.81048 97.8259 0.718379 98.1613 0.727133 98.5018C0.721874 98.7745 0.784266 99.0442 0.908686 99.2866C1.02096 99.5044 1.19283 99.6855 1.40411 99.8087C1.61898 99.9336 1.86359 99.9977 2.11186 99.9941C2.39378 100.02 2.67639 99.9524 2.91646 99.8018C3.15653 99.6511 3.34084 99.4257 3.4412 99.1599C3.52592 99.4483 3.70891 99.6976 3.95816 99.8643C4.23444 100.038 4.55572 100.125 4.88132 100.115H8.42006C8.69862 100.121 8.97486 100.062 9.22628 99.9415C9.4466 99.831 9.62883 99.6567 9.7494 99.441C9.9648 99.889 10.3648 100.115 10.9803 100.115H13.3589C13.5842 100.12 13.8066 100.063 14.0021 99.9508C14.1894 99.8388 14.3427 99.6775 14.4452 99.4843C14.5345 99.6824 14.6843 99.8468 14.8729 99.9539C15.0785 100.066 15.3099 100.121 15.5437 100.115H16.7746V96.7161H16.2976V99.6357ZM3.3735 98.1744C3.37918 98.4148 3.3308 98.6535 3.23195 98.8726C3.14463 99.0669 3.00367 99.232 2.82576 99.3484C2.65363 99.4631 2.45074 99.5224 2.24418 99.5183C2.10791 99.5266 1.97139 99.507 1.84286 99.4608C1.71434 99.4146 1.59648 99.3427 1.49643 99.2495C1.40318 99.1504 1.33106 99.0333 1.2845 98.9053C1.23793 98.7772 1.2179 98.641 1.22564 98.5049C1.22077 98.2519 1.28919 98.0029 1.42257 97.7882C1.55668 97.583 1.74685 97.4211 1.97031 97.3217C2.22268 97.2119 2.49537 97.1572 2.77038 97.161C2.96906 97.1613 3.16714 97.1831 3.36119 97.2259L3.3735 98.1744ZM9.22013 99.3731C9.11396 99.4671 8.99008 99.5388 8.85583 99.5839C8.72158 99.629 8.57968 99.6466 8.43853 99.6357H5.94602V99.1105C5.95952 98.768 6.06592 98.4358 6.25373 98.1496C6.44362 97.8564 6.70533 97.6171 7.0138 97.4545C7.33099 97.2851 7.68536 97.198 8.04465 97.2012C8.23546 97.191 8.4264 97.2187 8.60649 97.2829C8.78657 97.3471 8.95224 97.4463 9.09396 97.575C9.22325 97.705 9.3242 97.8606 9.39042 98.0318C9.45663 98.2031 9.48667 98.3863 9.47861 98.5698C9.49218 98.7155 9.47657 98.8624 9.43271 99.002C9.38885 99.1415 9.31761 99.2709 9.22321 99.3823L9.22013 99.3731Z" fill="#171717"/>
<path d="M23.2213 96.4644C23.2603 96.465 23.299 96.457 23.3346 96.441C23.3702 96.425 23.4019 96.4013 23.4274 96.3717C23.4561 96.3442 23.4788 96.3111 23.4941 96.2745C23.5095 96.2378 23.5171 96.1983 23.5167 96.1586C23.5167 96.0766 23.4843 95.9981 23.4266 95.9401C23.3688 95.8822 23.2906 95.8496 23.209 95.8496C23.1693 95.8492 23.1301 95.8569 23.0935 95.8723C23.057 95.8877 23.024 95.9105 22.9966 95.9392C22.9672 95.9649 22.9436 95.9967 22.9277 96.0325C22.9117 96.0682 22.9038 96.107 22.9043 96.1462C22.9043 96.2282 22.9367 96.3067 22.9945 96.3647C23.0522 96.4226 23.1304 96.4552 23.212 96.4552L23.2213 96.4644Z" fill="#171717"/>
<path d="M22.1903 96.4657C22.2297 96.4662 22.2688 96.4581 22.3049 96.4421C22.3409 96.4261 22.3732 96.4026 22.3995 96.3731C22.4276 96.3453 22.4497 96.3121 22.4645 96.2754C22.4793 96.2388 22.4865 96.1994 22.4857 96.1599C22.4866 96.1213 22.4794 96.0828 22.4646 96.0472C22.4497 96.0115 22.4276 95.9794 22.3995 95.9529C22.3727 95.9242 22.3403 95.9015 22.3042 95.8861C22.2682 95.8706 22.2294 95.8629 22.1903 95.8633C22.1506 95.8628 22.1114 95.8706 22.0748 95.886C22.0383 95.9014 22.0053 95.9242 21.9779 95.9529C21.9495 95.9792 21.9268 96.0113 21.9115 96.0469C21.8961 96.0826 21.8883 96.121 21.8887 96.1599C21.8882 96.1997 21.8959 96.2391 21.9113 96.2758C21.9266 96.3124 21.9493 96.3456 21.9779 96.3731C22.0048 96.4027 22.0376 96.4262 22.0742 96.4422C22.1108 96.4582 22.1504 96.4662 22.1903 96.4657Z" fill="#171717"/>
<path d="M30.0372 99.6349H28.9971C28.8561 99.6464 28.7143 99.6288 28.5804 99.5831C28.4465 99.5374 28.3233 99.4646 28.2186 99.3692C28.0302 99.1474 27.9372 98.8596 27.9601 98.569V98.569C27.9601 98.5319 27.9601 98.4979 27.9601 98.4609C27.9643 98.1496 27.8958 97.8417 27.7601 97.5618C27.6351 97.3089 27.4436 97.0952 27.2062 96.9439C26.9619 96.7906 26.6788 96.7113 26.3907 96.7153C26.0497 96.7082 25.7191 96.8332 25.4676 97.0644C25.1953 97.3465 25.0076 97.6998 24.926 98.084C24.8832 98.2631 24.8513 98.4447 24.8306 98.6277C24.8306 98.6524 24.8121 98.7358 24.7906 98.8687C24.7718 98.9939 24.7377 99.1163 24.689 99.2332C24.6356 99.3626 24.5416 99.4711 24.4213 99.5422C24.2931 99.6157 24.1474 99.6531 23.9998 99.6503C23.8589 99.6609 23.7173 99.6429 23.5835 99.5972C23.4497 99.5516 23.3265 99.4792 23.2212 99.3846C23.0352 99.1617 22.9435 98.8744 22.9658 98.5844V97.1571H22.4612V98.5844C22.4612 99.295 22.1135 99.6503 21.418 99.6503H20.7749V96.7184H19.6825C19.2866 96.7029 18.8932 96.7868 18.5378 96.9625C18.2587 97.1036 18.029 97.3266 17.8793 97.602C17.7389 97.8639 17.6669 98.1573 17.67 98.4547C17.6671 98.7444 17.7369 99.0303 17.8731 99.2858C18.0202 99.5545 18.2472 99.7705 18.5224 99.9036C18.8813 100.071 19.2747 100.151 19.6702 100.135H20.2672C20.2528 100.459 20.1228 100.766 19.901 101C19.6616 101.194 19.3581 101.289 19.0517 101.266C18.8455 101.264 18.6398 101.247 18.4362 101.214V101.68C18.6631 101.726 18.894 101.75 19.1255 101.751C19.3307 101.763 19.5361 101.732 19.7292 101.662C19.9223 101.591 20.0991 101.482 20.2487 101.34C20.5483 101.008 20.7263 100.583 20.7533 100.135H21.4211C21.7007 100.142 21.978 100.083 22.2304 99.9623C22.4507 99.8518 22.6329 99.6775 22.7535 99.4619C22.9689 99.9109 23.3792 100.135 23.9844 100.135C24.2122 100.141 24.4375 100.086 24.6367 99.9747C24.8227 99.8701 24.9721 99.7104 25.0645 99.5175V99.5175C25.2334 99.7192 25.4432 99.8824 25.6799 99.9963C25.9025 100.101 26.145 100.156 26.3907 100.157C26.6601 100.158 26.9252 100.089 27.16 99.9562C27.4093 99.8163 27.6141 99.6085 27.7508 99.3568C27.7971 99.4901 27.8658 99.6144 27.9539 99.7244C28.0907 99.8602 28.2548 99.9649 28.4353 100.032C28.6158 100.098 28.8084 100.125 29.0002 100.111H30.5387V95.3652H30.0372V99.6349ZM20.2948 99.6101V99.6349H19.6794C19.2626 99.6701 18.8481 99.5453 18.5193 99.2858C18.4004 99.1761 18.3062 99.0422 18.243 98.893C18.1799 98.7438 18.1492 98.5828 18.1531 98.4207C18.1492 98.2592 18.1793 98.0987 18.2413 97.9496C18.3033 97.8006 18.396 97.6663 18.5132 97.5557C18.8418 97.299 19.2558 97.1785 19.6702 97.2189H20.2856L20.2948 99.6101ZM27.3231 99.0942C27.2328 99.2638 27.0976 99.4049 26.9323 99.502C26.7668 99.5947 26.5802 99.6426 26.3907 99.641C26.176 99.6386 25.965 99.5846 25.7753 99.4835C25.5613 99.3682 25.3745 99.2081 25.2276 99.0139L25.2829 98.7049C25.3093 98.5044 25.3504 98.3062 25.406 98.1118C25.4693 97.852 25.5974 97.6128 25.7784 97.4166C25.8608 97.3396 25.9577 97.2797 26.0633 97.2405C26.1689 97.2012 26.2813 97.1834 26.3938 97.188C26.5423 97.1822 26.6902 97.211 26.8258 97.2721C26.9613 97.3332 27.081 97.4249 27.1754 97.5402C27.3835 97.7959 27.4928 98.1184 27.4831 98.4485C27.487 98.6741 27.4318 98.8968 27.3231 99.0942V99.0942Z" fill="#171717"/>
<path d="M32.0423 95.3711H31.5469V100.11H32.0423V95.3711Z" fill="#171717"/>
<path d="M34.1651 96.9381C33.8825 97.0731 33.6451 97.2878 33.4819 97.556C33.3267 97.8397 33.2482 98.1592 33.2542 98.4828C33.2513 98.7691 33.3167 99.052 33.445 99.3077C33.5638 99.5432 33.7407 99.7443 33.9589 99.8916C34.1719 100.031 34.4214 100.105 34.6759 100.102C34.9225 100.106 35.1657 100.044 35.3806 99.9225C35.5875 99.8038 35.7595 99.6322 35.8791 99.4251V99.6012C35.917 100.039 35.8158 100.479 35.5898 100.856C35.4723 100.989 35.3249 101.093 35.1596 101.159C34.9943 101.224 34.8158 101.25 34.639 101.232C34.4329 101.23 34.2273 101.214 34.0235 101.183V101.646C34.2524 101.693 34.4854 101.717 34.719 101.717C34.9514 101.734 35.1844 101.694 35.3985 101.601C35.6125 101.509 35.8016 101.367 35.9498 101.186C36.2572 100.722 36.4053 100.17 36.3714 99.6136V96.7002H35.279C34.8941 96.6891 34.5122 96.7707 34.1651 96.9381ZM35.8791 98.4828C35.8891 98.6872 35.8456 98.8907 35.7529 99.0729C35.6618 99.2423 35.5295 99.3858 35.3682 99.49C35.2081 99.5917 35.0223 99.6453 34.8328 99.6445C34.6415 99.6464 34.4533 99.5962 34.2882 99.4993C34.1237 99.4021 33.9895 99.2609 33.9004 99.0915C33.8032 98.9081 33.7545 98.7028 33.7589 98.4952C33.7515 98.3224 33.7814 98.1501 33.8468 97.9901C33.9121 97.83 34.0113 97.6862 34.1374 97.5684C34.4578 97.3136 34.8623 97.19 35.2698 97.2223H35.8852L35.8791 98.4828Z" fill="#171717"/>
<path d="M41.2631 96.9448C41.0076 96.7796 40.7084 96.6956 40.4046 96.7038C40.0979 96.6944 39.7957 96.7808 39.5399 96.951C39.3029 97.1094 39.1144 97.3308 38.9953 97.5905C38.8726 97.8546 38.8095 98.1426 38.8106 98.4339C38.8079 98.7178 38.8689 98.9987 38.9891 99.2557C39.1052 99.5097 39.2923 99.7243 39.5276 99.8736C39.7896 100.03 40.0889 100.113 40.3938 100.113C40.6988 100.113 40.9981 100.03 41.2601 99.8736C41.4955 99.7227 41.6842 99.5087 41.8047 99.2557C41.9253 98.9965 41.9873 98.7138 41.9863 98.4277C41.9873 98.1387 41.9254 97.8529 41.8047 97.5905C41.6866 97.3295 41.4992 97.1061 41.2631 96.9448V96.9448ZM41.3616 99.0271C41.284 99.2047 41.1582 99.3567 40.9985 99.4658C40.8231 99.5833 40.6154 99.6428 40.4046 99.6357C40.1925 99.6419 39.9838 99.5814 39.8076 99.4627C39.644 99.3525 39.5132 99.1998 39.4291 99.0209C39.3459 98.8338 39.3029 98.6311 39.3029 98.4262C39.3029 98.2212 39.3459 98.0186 39.4291 97.8315C39.5107 97.6486 39.6392 97.4908 39.8015 97.3742C39.9756 97.256 40.1822 97.1955 40.3923 97.2012C40.6039 97.1951 40.8119 97.2568 40.9862 97.3773C41.1504 97.4952 41.2801 97.6553 41.3616 97.8407C41.4472 98.0353 41.4902 98.246 41.4878 98.4586C41.487 98.655 41.444 98.849 41.3616 99.0271Z" fill="#171717"/>
<path d="M39.9241 96.1541C39.9637 96.1546 40.003 96.1469 40.0395 96.1314C40.076 96.116 40.109 96.0933 40.1364 96.0645C40.1901 96.0072 40.2199 95.9315 40.2199 95.8529C40.2199 95.7743 40.1901 95.6986 40.1364 95.6413C40.1087 95.6131 40.0756 95.5909 40.0391 95.576C40.0026 95.5611 39.9635 95.5539 39.9241 95.5548C39.8449 95.5551 39.7688 95.5861 39.7118 95.6413C39.6826 95.6682 39.6593 95.7009 39.6433 95.7373C39.6274 95.7737 39.6191 95.8131 39.6191 95.8529C39.6191 95.8927 39.6274 95.932 39.6433 95.9685C39.6593 96.0049 39.6826 96.0376 39.7118 96.0645C39.7683 96.1209 39.8444 96.153 39.9241 96.1541V96.1541Z" fill="#171717"/>
<path d="M40.9612 96.1542C41.0004 96.1548 41.0392 96.1471 41.0753 96.1317C41.1113 96.1162 41.1437 96.0934 41.1704 96.0646C41.2241 96.0073 41.254 95.9316 41.254 95.853C41.254 95.7743 41.2241 95.6986 41.1704 95.6413C41.1436 95.6129 41.1111 95.5905 41.075 95.5756C41.039 95.5607 41.0002 95.5536 40.9612 95.5548C40.882 95.5551 40.8059 95.5861 40.7489 95.6413C40.7197 95.6682 40.6964 95.7009 40.6804 95.7374C40.6645 95.7738 40.6562 95.8132 40.6562 95.853C40.6562 95.8927 40.6645 95.9321 40.6804 95.9685C40.6964 96.005 40.7197 96.0377 40.7489 96.0646C40.8054 96.1209 40.8815 96.153 40.9612 96.1542V96.1542Z" fill="#171717"/>
<path d="M46.4999 100.695C46.4197 100.695 46.3424 100.726 46.2845 100.782C46.2563 100.809 46.2338 100.842 46.2185 100.878C46.2032 100.914 46.1953 100.953 46.1953 100.992C46.1953 101.074 46.2277 101.152 46.2854 101.21C46.3431 101.268 46.4214 101.301 46.503 101.301C46.5421 101.301 46.5808 101.293 46.6168 101.278C46.6528 101.262 46.6852 101.24 46.7123 101.211C46.7684 101.154 46.8004 101.078 46.8015 100.998C46.8016 100.959 46.7937 100.92 46.7783 100.884C46.763 100.848 46.7405 100.815 46.7123 100.788C46.6853 100.759 46.6524 100.735 46.6159 100.719C46.5793 100.703 46.5398 100.695 46.4999 100.695Z" fill="#171717"/>
<path d="M45.4628 100.696C45.3825 100.695 45.3052 100.727 45.2474 100.782C45.2192 100.81 45.1967 100.842 45.1814 100.878C45.166 100.914 45.1582 100.953 45.1582 100.993C45.1593 101.073 45.1913 101.149 45.2474 101.206C45.3048 101.263 45.3821 101.295 45.4628 101.295C45.5425 101.294 45.6186 101.262 45.6752 101.206C45.7301 101.148 45.761 101.072 45.7613 100.993C45.7613 100.911 45.7289 100.832 45.6712 100.774C45.6135 100.716 45.5352 100.684 45.4536 100.684L45.4628 100.696Z" fill="#171717"/>
<path d="M49.5999 96.153C49.6815 96.153 49.7597 96.1205 49.8174 96.0626C49.8752 96.0046 49.9076 95.926 49.9076 95.8441C49.9076 95.7622 49.8752 95.6836 49.8174 95.6256C49.7597 95.5677 49.6815 95.5352 49.5999 95.5352C49.5206 95.5355 49.4446 95.5665 49.3875 95.6217C49.3583 95.6486 49.335 95.6813 49.3191 95.7177C49.3032 95.7541 49.2949 95.7935 49.2949 95.8333C49.2949 95.8731 49.3032 95.9124 49.3191 95.9489C49.335 95.9853 49.3583 96.018 49.3875 96.0449C49.414 96.0762 49.4464 96.1019 49.4829 96.1204C49.5193 96.139 49.5591 96.1501 49.5999 96.153Z" fill="#171717"/>
<path d="M59.1564 99.6349H58.104C57.963 99.646 57.8213 99.6282 57.6874 99.5825C57.5536 99.5369 57.4304 99.4642 57.3254 99.3692C57.2309 99.26 57.1591 99.133 57.1141 98.9956C57.0692 98.8582 57.0521 98.7131 57.0639 98.569C57.0688 98.2324 56.9838 97.9006 56.8177 97.6082C56.6552 97.3249 56.4163 97.0936 56.1284 96.9409C55.8168 96.7788 55.47 96.697 55.1191 96.703C54.6696 96.6926 54.2265 96.8116 53.8421 97.0459C53.4818 97.266 53.1948 97.5886 53.0174 97.9727V96.6937H52.5251V99.6256H50.2972L51.3773 98.6308V98.4763C51.3793 98.2422 51.335 98.01 51.2469 97.7932C51.1587 97.5764 51.0286 97.3793 50.864 97.2134C50.6993 97.0476 50.5035 96.9162 50.2879 96.827C50.0723 96.7378 49.8411 96.6925 49.6079 96.6937C49.2976 96.6919 48.9925 96.774 48.7248 96.9316C48.4569 97.0897 48.235 97.3155 48.0811 97.5866C47.9273 97.8576 47.8468 98.1644 47.8478 98.4763V98.6308L48.9217 99.6256H47.2754C47.134 99.6365 46.9919 99.6185 46.8576 99.5729C46.7233 99.5272 46.5995 99.4548 46.4938 99.3599C46.3054 99.1381 46.2125 98.8503 46.2353 98.5597V97.1324H45.7368V98.5597C45.7368 99.2703 45.386 99.6256 44.6844 99.6256H43.9674V97.1324H43.4689V100.355C43.485 100.537 43.4395 100.72 43.3397 100.874C43.2886 100.929 43.2258 100.971 43.1561 100.999C43.0863 101.026 43.0113 101.037 42.9366 101.031C42.7989 101.028 42.6618 101.012 42.5273 100.982L42.4258 101.427C42.6196 101.479 42.8191 101.507 43.0197 101.51C43.1527 101.521 43.2863 101.5 43.4102 101.451C43.5341 101.401 43.6447 101.323 43.7336 101.223C43.9074 100.968 43.9899 100.662 43.9674 100.355V100.101H44.6752C44.9565 100.109 45.2358 100.051 45.4906 99.9314C45.7129 99.8226 45.8965 99.6479 46.0168 99.431C46.2322 99.88 46.6477 100.103 47.2631 100.101H49.134C49.2202 100.105 49.3062 100.09 49.3863 100.058C49.4728 100.003 49.5455 99.9294 49.5987 99.8419C49.6508 99.9294 49.7238 100.003 49.811 100.055C49.8916 100.09 49.9789 100.105 50.0664 100.101H55.5068C55.7874 100.108 56.0656 100.049 56.3192 99.9284C56.5418 99.8188 56.7263 99.6444 56.8485 99.4279C57.0536 99.8769 57.4639 100.1 58.0794 100.098H59.6179V95.3652H59.1194L59.1564 99.6349ZM49.6171 99.6071L48.3493 98.4145C48.3631 98.1949 48.4319 97.9824 48.5494 97.7966C48.6619 97.615 48.8186 97.4651 49.0048 97.361C49.1932 97.2566 49.405 97.2019 49.6202 97.2019C49.8355 97.2019 50.0472 97.2566 50.2356 97.361C50.4221 97.4658 50.5796 97.6155 50.6941 97.7966C50.8103 97.983 50.879 98.1952 50.8942 98.4145L49.6171 99.6071ZM56.3069 99.3815C56.199 99.4757 56.0735 99.5474 55.9377 99.5924C55.802 99.6375 55.6586 99.6551 55.5161 99.6441H53.0082V99.1066C53.0179 98.7654 53.1247 98.4341 53.3159 98.1519C53.5125 97.8616 53.7779 97.6248 54.0883 97.463C54.4077 97.2936 54.764 97.2066 55.1253 97.2096C55.3161 97.1989 55.5072 97.2264 55.6874 97.2906C55.8675 97.3548 56.0331 97.4543 56.1746 97.5835C56.3033 97.7137 56.4037 97.8694 56.4694 98.0407C56.5351 98.2119 56.5646 98.395 56.5562 98.5783C56.5693 98.722 56.5541 98.867 56.5113 99.0048C56.4685 99.1427 56.3991 99.2707 56.3069 99.3815V99.3815Z" fill="#171717"/>
<path d="M61.1782 95.3711H60.6797V100.11H61.1782V95.3711Z" fill="#171717"/>
<path d="M65.6328 96.6903C65.6727 96.6906 65.7121 96.6825 65.7487 96.6665C65.7853 96.6506 65.8181 96.6271 65.8451 96.5976C65.9001 96.5404 65.931 96.464 65.9313 96.3845C65.9315 96.3459 65.9239 96.3078 65.9091 96.2722C65.8943 96.2366 65.8726 96.2044 65.8451 96.1775C65.7886 96.1212 65.7124 96.089 65.6328 96.0879C65.5521 96.0882 65.4747 96.1204 65.4174 96.1775C65.3889 96.2038 65.3663 96.2358 65.3509 96.2715C65.3356 96.3071 65.3278 96.3456 65.3281 96.3845C65.3277 96.4242 65.3354 96.4637 65.3507 96.5004C65.3661 96.537 65.3888 96.5701 65.4174 96.5976C65.4742 96.6559 65.5516 96.6892 65.6328 96.6903V96.6903Z" fill="#171717"/>
<path d="M66.6718 96.6903C66.7113 96.6905 66.7503 96.6824 66.7863 96.6664C66.8224 96.6504 66.8547 96.627 66.8811 96.5976C66.9097 96.5701 66.9324 96.537 66.9478 96.5004C66.9631 96.4637 66.9708 96.4242 66.9703 96.3845C66.9707 96.3456 66.9629 96.3071 66.9476 96.2715C66.9322 96.2358 66.9095 96.2038 66.8811 96.1775C66.8541 96.1491 66.8216 96.1266 66.7856 96.1112C66.7496 96.0958 66.7109 96.0879 66.6718 96.0879C66.5911 96.0882 66.5138 96.1204 66.4564 96.1775C66.428 96.2038 66.4053 96.2358 66.39 96.2715C66.3746 96.3071 66.3669 96.3456 66.3672 96.3845C66.3667 96.4242 66.3744 96.4637 66.3898 96.5004C66.4051 96.537 66.4278 96.5701 66.4564 96.5976C66.5133 96.6559 66.5907 96.6892 66.6718 96.6903V96.6903Z" fill="#171717"/>
<path d="M68.2959 99.6351H65.5264C65.13 99.6621 64.7379 99.5386 64.4279 99.2891C64.299 99.1642 64.1986 99.0129 64.1333 98.8455C64.0679 98.6781 64.0393 98.4985 64.0494 98.319C64.0534 98.029 64.1022 97.7414 64.194 97.4663H63.6924C63.5978 97.7579 63.547 98.0619 63.5416 98.3684C63.5331 98.6931 63.614 99.0138 63.7755 99.2953C63.9343 99.5659 64.1716 99.7814 64.4555 99.9132C64.7918 100.061 65.1562 100.134 65.5233 100.126H68.7944V97.1543H68.2959V99.6351Z" fill="#171717"/>
<path d="M69.783 94.3306C69.8185 94.3507 69.8524 94.3734 69.8846 94.3986L69.9954 94.4696C70.0997 94.5399 70.2086 94.6029 70.3215 94.6581C70.4179 94.7025 70.5233 94.7237 70.6293 94.7199C70.7072 94.7243 70.7851 94.7113 70.8575 94.682C70.9298 94.6526 70.9948 94.6075 71.0478 94.55C71.1551 94.4181 71.2089 94.2504 71.1985 94.0804V93.8672H70.7862V94.0804C70.7921 94.1395 70.7792 94.199 70.7493 94.2503C70.7351 94.2683 70.7168 94.2825 70.6958 94.2917C70.6749 94.3008 70.652 94.3047 70.6293 94.3028C70.5625 94.3033 70.4965 94.2896 70.4354 94.2626C70.3584 94.2257 70.2852 94.1812 70.2169 94.1298C70.2169 94.1143 70.1677 94.0927 70.1154 94.0526C70.0539 94.0093 69.9891 93.9711 69.9215 93.9382C69.8387 93.8996 69.7482 93.8806 69.6569 93.8826C69.5844 93.8804 69.5123 93.8949 69.4462 93.9249C69.3801 93.9548 69.3216 93.9996 69.2753 94.0556C69.1754 94.1851 69.1252 94.3463 69.1338 94.5098V94.7168H69.5553V94.5098C69.5553 94.3677 69.5984 94.2997 69.6846 94.2997C69.7197 94.2999 69.754 94.3106 69.783 94.3306V94.3306Z" fill="#171717"/>
<path d="M75.5053 96.1168C75.5448 96.1176 75.584 96.1097 75.6202 96.0937C75.6563 96.0777 75.6885 96.0539 75.7146 96.0241C75.7432 95.9966 75.7659 95.9635 75.7812 95.9268C75.7966 95.8901 75.8043 95.8507 75.8038 95.8109C75.8038 95.729 75.7714 95.6504 75.7137 95.5924C75.656 95.5345 75.5777 95.502 75.4961 95.502C75.4164 95.5031 75.3403 95.5352 75.2838 95.5915C75.2543 95.6172 75.2307 95.649 75.2148 95.6848C75.1988 95.7205 75.1909 95.7594 75.1914 95.7985C75.191 95.8386 75.199 95.8783 75.2149 95.915C75.2308 95.9518 75.2543 95.9847 75.2838 96.0117C75.3106 96.0446 75.3445 96.0711 75.3828 96.0892C75.4211 96.1074 75.4629 96.1168 75.5053 96.1168V96.1168Z" fill="#171717"/>
<path d="M73.8222 96.1161C73.8617 96.1165 73.9007 96.1085 73.9368 96.0925C73.9729 96.0765 74.0052 96.053 74.0315 96.0234C74.0596 95.9957 74.0817 95.9624 74.0965 95.9258C74.1113 95.8891 74.1185 95.8498 74.1176 95.8103C74.1186 95.7716 74.1114 95.7332 74.0965 95.6975C74.0817 95.6619 74.0595 95.6298 74.0315 95.6033C74.0047 95.5746 73.9722 95.5519 73.9362 95.5364C73.9002 95.521 73.8614 95.5133 73.8222 95.5137C73.7415 95.514 73.6642 95.5462 73.6068 95.6033C73.5784 95.6296 73.5557 95.6616 73.5404 95.6973C73.525 95.7329 73.5172 95.7714 73.5176 95.8103C73.5171 95.85 73.5248 95.8895 73.5402 95.9262C73.5555 95.9628 73.5782 95.9959 73.6068 96.0234C73.6637 96.0817 73.7411 96.115 73.8222 96.1161V96.1161Z" fill="#171717"/>
<path d="M74.6621 95.2693C74.702 95.2698 74.7415 95.2618 74.7781 95.2458C74.8147 95.2298 74.8475 95.2063 74.8744 95.1767C74.9022 95.1494 74.9242 95.1167 74.939 95.0805C74.9539 95.0444 74.9612 95.0056 74.9606 94.9666C74.9615 94.9275 74.9544 94.8886 74.9396 94.8524C74.9247 94.8162 74.9025 94.7836 74.8744 94.7565C74.8467 94.7283 74.8136 94.7061 74.7771 94.6912C74.7406 94.6764 74.7015 94.6691 74.6621 94.67C74.5828 94.6703 74.5068 94.7013 74.4497 94.7565C74.4203 94.7829 74.3969 94.8153 74.381 94.8515C74.3651 94.8878 74.357 94.927 74.3574 94.9666C74.3572 95.0061 74.3653 95.0453 74.3813 95.0815C74.3972 95.1177 74.4205 95.1501 74.4497 95.1767C74.5058 95.2341 74.582 95.2674 74.6621 95.2693V95.2693Z" fill="#171717"/>
<path d="M79.0625 96.4657C79.102 96.4661 79.1411 96.4581 79.1771 96.4421C79.2132 96.4261 79.2455 96.4026 79.2718 96.3731C79.3004 96.3456 79.3231 96.3124 79.3385 96.2758C79.3538 96.2391 79.3615 96.1997 79.361 96.1599C79.3614 96.121 79.3536 96.0826 79.3383 96.0469C79.3229 96.0113 79.3002 95.9792 79.2718 95.9529C79.245 95.9242 79.2125 95.9015 79.1765 95.8861C79.1405 95.8706 79.1017 95.8629 79.0625 95.8633C78.9818 95.8636 78.9045 95.8958 78.8471 95.9529C78.8182 95.9788 78.7953 96.0108 78.7799 96.0465C78.7644 96.0823 78.757 96.121 78.7579 96.1599C78.7569 96.1997 78.7643 96.2394 78.7797 96.2761C78.7951 96.3129 78.8181 96.3459 78.8471 96.3731C78.904 96.4313 78.9814 96.4646 79.0625 96.4657V96.4657Z" fill="#171717"/>
<path d="M89.0312 99.6349H87.985C87.843 99.6467 87.7002 99.6292 87.5652 99.5835C87.4303 99.5378 87.3061 99.4649 87.2003 99.3692C87.0119 99.1474 86.9189 98.8596 86.9418 98.569V95.3652H86.4402V98.5628C86.4402 99.2734 86.0925 99.6287 85.3909 99.6287C85.2495 99.6403 85.1071 99.6227 84.9727 99.577C84.8383 99.5313 84.7146 99.4585 84.6093 99.363C84.5155 99.2534 84.4441 99.1263 84.3992 98.989C84.3543 98.8517 84.3368 98.7069 84.3477 98.5628V98.5628C84.3477 98.5257 84.3477 98.4918 84.3477 98.4547C84.3524 98.143 84.2827 97.8348 84.1446 97.5557C84.018 97.302 83.8243 97.0882 83.5846 96.9378C83.3394 96.784 83.0551 96.7047 82.7661 96.7091C82.4179 96.6973 82.0789 96.8226 81.8214 97.0583C81.5459 97.3384 81.3568 97.6924 81.2767 98.0778C81.2328 98.2568 81.1999 98.4384 81.1782 98.6215C81.1782 98.6462 81.1782 98.7297 81.1413 98.8625C81.1231 98.9882 81.0879 99.1109 81.0367 99.2271C80.9832 99.3565 80.8892 99.4649 80.769 99.536C80.6395 99.6093 80.4929 99.6466 80.3443 99.6441C80.2029 99.655 80.0608 99.6371 79.9265 99.5914C79.7922 99.5457 79.6685 99.4733 79.5627 99.3784C79.3744 99.1566 79.2814 98.8688 79.3043 98.5783V97.1509H78.8027V98.5783C78.8027 99.2888 78.4539 99.6441 77.7564 99.6441H77.0364V96.7122H76.5379V99.6441H75.8178C75.6914 99.6526 75.5648 99.6326 75.4471 99.5855C75.3294 99.5385 75.2238 99.4656 75.1378 99.3723C74.9676 99.1443 74.8846 98.8625 74.9039 98.5783V96.91H74.4054V98.5752C74.4261 98.8564 74.3536 99.1366 74.1992 99.3723C74.1305 99.461 74.0415 99.5318 73.9397 99.5786C73.8379 99.6254 73.7264 99.6468 73.6146 99.641H72.7683V96.91H72.2668V99.641H70.1774V95.3652H69.6758V100.104H73.6023C73.8296 100.111 74.0543 100.054 74.2515 99.9407C74.4397 99.8288 74.594 99.6675 74.6977 99.4742C74.7891 99.6719 74.9398 99.8361 75.1285 99.9438C75.3361 100.056 75.5697 100.112 75.8055 100.104H77.7503C78.0298 100.112 78.3071 100.052 78.5596 99.9314C78.7839 99.8244 78.969 99.6494 79.0888 99.431C79.294 99.88 79.7115 100.104 80.3413 100.104C80.571 100.11 80.798 100.054 80.9998 99.9438C81.185 99.8382 81.3341 99.6788 81.4275 99.4866C81.5964 99.6883 81.8062 99.8516 82.0429 99.9654C82.2678 100.07 82.5122 100.125 82.7599 100.126C83.0313 100.127 83.2983 100.058 83.5354 99.9253C83.7705 99.7917 83.966 99.5976 84.1016 99.363C84.1478 99.4963 84.2165 99.6206 84.3047 99.7306C84.4436 99.8668 84.6099 99.9717 84.7924 100.038C84.975 100.105 85.1696 100.132 85.3632 100.117V100.117C85.6445 100.125 85.9238 100.067 86.1787 99.9469C86.4001 99.8369 86.5835 99.6625 86.7048 99.4464C86.9202 99.8954 87.3357 100.119 87.9511 100.117H89.4897V95.3652H88.9912L89.0312 99.6349ZM83.7077 99.0942C83.6172 99.2647 83.4807 99.406 83.3138 99.502C83.1474 99.5951 82.9597 99.643 82.7691 99.641C82.5544 99.6388 82.3433 99.5848 82.1537 99.4835C81.9372 99.3693 81.7482 99.209 81.5998 99.0139L81.6583 98.7049C81.6846 98.5044 81.7257 98.3062 81.7814 98.1118C81.8443 97.8513 81.9737 97.6117 82.1568 97.4166C82.2393 97.3397 82.3362 97.28 82.4418 97.2407C82.5474 97.2015 82.6597 97.1836 82.7722 97.188C82.9216 97.1822 83.0704 97.2109 83.207 97.272C83.3436 97.333 83.4643 97.4248 83.56 97.5402C83.7681 97.7959 83.8774 98.1184 83.8677 98.4485C83.8716 98.6741 83.8164 98.8968 83.7077 99.0942V99.0942Z" fill="#171717"/>
<path d="M96.9882 100.695C96.9079 100.695 96.8306 100.726 96.7728 100.782C96.7446 100.809 96.7221 100.842 96.7068 100.878C96.6914 100.914 96.6836 100.953 96.6836 100.992C96.6836 101.074 96.716 101.152 96.7737 101.21C96.8314 101.268 96.9097 101.301 96.9913 101.301C97.0304 101.301 97.0691 101.293 97.1051 101.278C97.141 101.262 97.1735 101.24 97.2006 101.211C97.2567 101.154 97.2887 101.078 97.2898 100.998C97.2898 100.959 97.2819 100.92 97.2666 100.884C97.2513 100.848 97.2288 100.815 97.2006 100.788C97.1735 100.759 97.1407 100.735 97.1041 100.719C97.0676 100.703 97.0281 100.695 96.9882 100.695Z" fill="#171717"/>
<path d="M98.0026 100.111V97.1417H97.5041V99.6349H95.7348V95.3652H95.2363V99.5576C95.2363 100.674 94.7306 101.231 93.7192 101.229C93.3305 101.244 92.9482 101.125 92.636 100.892C92.4803 100.749 92.3603 100.571 92.2855 100.372C92.2107 100.174 92.1832 99.9602 92.2052 99.7492C92.2151 99.3487 92.2804 98.9515 92.3991 98.569H91.9006C91.7841 98.9655 91.721 99.376 91.7129 99.7893C91.7129 100.467 91.9047 100.955 92.2883 101.254C92.7014 101.561 93.2056 101.719 93.7192 101.702C94.1954 101.723 94.6648 101.583 95.0516 101.303C95.2321 101.156 95.3818 100.974 95.4921 100.768C95.6025 100.562 95.6713 100.337 95.6948 100.104H98.0026V100.111Z" fill="#171717"/>
<path d="M98.0304 100.694C97.9501 100.694 97.8728 100.725 97.815 100.781C97.7857 100.807 97.7624 100.839 97.7465 100.876C97.7306 100.912 97.7225 100.951 97.7227 100.991C97.7246 101.071 97.7577 101.147 97.815 101.204C97.8723 101.261 97.9497 101.293 98.0304 101.293C98.0695 101.293 98.1082 101.285 98.1441 101.27C98.1801 101.255 98.2126 101.232 98.2396 101.204C98.2946 101.146 98.3255 101.07 98.3258 100.991C98.3258 100.909 98.2934 100.83 98.2357 100.772C98.1779 100.714 98.0997 100.682 98.0181 100.682L98.0304 100.694Z" fill="#171717"/>
<path d="M108.554 96.4664C108.594 96.4672 108.633 96.4593 108.669 96.4433C108.705 96.4273 108.737 96.4035 108.763 96.3737C108.792 96.3462 108.815 96.3131 108.83 96.2764C108.845 96.2397 108.853 96.2003 108.853 96.1605C108.853 96.0786 108.82 96 108.762 95.942C108.705 95.8841 108.627 95.8516 108.545 95.8516C108.464 95.8519 108.387 95.8841 108.329 95.9411C108.301 95.9675 108.278 95.9995 108.263 96.0352C108.248 96.0708 108.24 96.1093 108.24 96.1481C108.24 96.1879 108.247 96.2274 108.263 96.264C108.278 96.3007 108.301 96.3338 108.329 96.3613C108.358 96.3935 108.392 96.4195 108.431 96.4375C108.469 96.4556 108.511 96.4654 108.554 96.4664Z" fill="#171717"/>
<path d="M109.603 96.4657C109.643 96.4659 109.682 96.4578 109.718 96.4418C109.754 96.4258 109.786 96.4024 109.813 96.373C109.841 96.3455 109.864 96.3124 109.879 96.2758C109.895 96.2391 109.902 96.1996 109.902 96.1599C109.902 96.121 109.895 96.0825 109.879 96.0469C109.864 96.0112 109.841 95.9792 109.813 95.9529C109.786 95.9245 109.753 95.902 109.717 95.8866C109.681 95.8712 109.643 95.8632 109.603 95.8633C109.523 95.8636 109.445 95.8958 109.388 95.9529C109.36 95.9792 109.337 96.0112 109.322 96.0469C109.306 96.0825 109.298 96.121 109.299 96.1599C109.298 96.1996 109.306 96.2391 109.321 96.2758C109.337 96.3124 109.359 96.3455 109.388 96.373C109.445 96.4313 109.522 96.4646 109.603 96.4657V96.4657Z" fill="#171717"/>
<path d="M111.415 99.6349H110.366C110.225 99.6457 110.083 99.6278 109.948 99.5821C109.814 99.5365 109.69 99.464 109.585 99.3692C109.491 99.2598 109.419 99.1327 109.375 98.9953C109.331 98.8579 109.314 98.7129 109.326 98.569V97.1417H108.825V98.569C108.825 99.2796 108.475 99.6349 107.775 99.6349C107.634 99.6466 107.491 99.6291 107.357 99.5834C107.222 99.5377 107.099 99.4648 106.994 99.3692C106.899 99.26 106.827 99.133 106.782 98.9956C106.737 98.8582 106.72 98.7131 106.732 98.569V98.569C106.732 98.5319 106.732 98.4979 106.732 98.4609C106.738 98.1495 106.669 97.8412 106.532 97.5618C106.405 97.3081 106.212 97.0943 105.972 96.9439C105.727 96.7902 105.443 96.7108 105.153 96.7153C104.805 96.7035 104.466 96.8288 104.209 97.0644C103.933 97.3446 103.744 97.6986 103.664 98.0839C103.62 98.263 103.587 98.4446 103.566 98.6277C103.566 98.6524 103.566 98.7358 103.526 98.8687C103.508 98.9942 103.474 99.1169 103.424 99.2332C103.371 99.3626 103.277 99.4711 103.156 99.5422C103.026 99.615 102.878 99.6523 102.729 99.6503H102.082V96.7184H100.987C100.589 96.7029 100.194 96.7868 99.8361 96.9625C99.5558 97.1042 99.3243 97.3269 99.1714 97.602C99.0301 97.8637 98.9571 98.157 98.9591 98.4547C98.9557 98.7449 99.0267 99.031 99.1653 99.2858C99.3148 99.5548 99.5438 99.7707 99.8207 99.9036C100.182 100.071 100.577 100.151 100.975 100.135H101.59C101.574 100.459 101.443 100.765 101.221 101C100.979 101.194 100.674 101.288 100.365 101.266C100.159 101.264 99.9535 101.246 99.7499 101.214V101.68C99.9779 101.726 100.21 101.75 100.442 101.751C100.649 101.763 100.856 101.732 101.05 101.662C101.245 101.591 101.423 101.482 101.575 101.34C101.875 101.008 102.054 100.583 102.082 100.135H102.753C102.983 100.141 103.21 100.086 103.412 99.9747C103.599 99.8702 103.749 99.7106 103.843 99.5175V99.5175C104.012 99.7182 104.222 99.8813 104.458 99.9963C104.683 100.101 104.927 100.155 105.175 100.157C105.446 100.158 105.713 100.089 105.95 99.9562C106.186 99.8226 106.381 99.6285 106.517 99.3939C106.563 99.5272 106.632 99.6515 106.72 99.7615C106.858 99.8982 107.025 100.003 107.207 100.07C107.39 100.137 107.585 100.163 107.778 100.148V100.148C108.06 100.155 108.339 100.096 108.594 99.9747C108.815 99.8647 108.999 99.6903 109.12 99.4742C109.335 99.9222 109.751 100.145 110.369 100.148H111.908V95.3652H111.409L111.415 99.6349ZM101.602 99.6101V99.6349H100.987C100.566 99.6711 100.148 99.5464 99.8146 99.2858C99.6992 99.1734 99.6074 99.039 99.5448 98.8904C99.4821 98.7418 99.4498 98.5821 99.4498 98.4207C99.4498 98.2593 99.4821 98.0996 99.5448 97.951C99.6074 97.8024 99.6992 97.668 99.8146 97.5557C100.148 97.2966 100.568 97.176 100.987 97.2189H101.602V99.6101ZM106.092 99.0942C106.002 99.2647 105.865 99.406 105.698 99.502C105.532 99.5949 105.344 99.6428 105.153 99.641C104.939 99.6388 104.728 99.5848 104.538 99.4835C104.322 99.3693 104.133 99.209 103.984 99.0139L104.043 98.7049C104.069 98.5044 104.11 98.3062 104.166 98.1118C104.229 97.8513 104.358 97.6117 104.541 97.4166C104.624 97.3397 104.72 97.28 104.826 97.2407C104.932 97.2015 105.044 97.1836 105.157 97.188C105.306 97.1822 105.455 97.2109 105.591 97.272C105.728 97.333 105.849 97.4248 105.944 97.5402C106.147 97.7981 106.251 98.1204 106.237 98.4485C106.245 98.6727 106.195 98.8953 106.092 99.0942V99.0942Z" fill="#171717"/>
<path d="M113.438 95.3711H112.939V100.11H113.438V95.3711Z" fill="#171717"/>
<path d="M119.801 99.5645C119.801 100.681 119.296 101.238 118.287 101.236C117.898 101.251 117.515 101.134 117.2 100.902C117.045 100.758 116.925 100.579 116.851 100.38C116.776 100.181 116.748 99.9676 116.77 99.7561C116.78 99.3556 116.845 98.9584 116.964 98.5759H116.465C116.35 98.9728 116.287 99.383 116.277 99.7962C116.277 100.474 116.47 100.961 116.856 101.258C117.268 101.567 117.773 101.726 118.287 101.709C118.556 101.724 118.826 101.685 119.08 101.593C119.335 101.502 119.568 101.361 119.767 101.177C119.959 100.958 120.106 100.702 120.197 100.425C120.289 100.148 120.325 99.8556 120.302 99.5645V97.4668H119.801V99.5645Z" fill="#171717"/>
<path d="M118.293 97.697C118.332 97.6971 118.371 97.6892 118.407 97.6738C118.443 97.6584 118.475 97.6358 118.502 97.6075C118.558 97.5507 118.59 97.4743 118.591 97.3943C118.592 97.3549 118.584 97.3159 118.569 97.2797C118.554 97.2435 118.531 97.211 118.502 97.1842C118.475 97.1563 118.442 97.1342 118.406 97.1193C118.37 97.1044 118.332 97.0971 118.293 97.0977C118.213 97.0972 118.135 97.1283 118.078 97.1842C118.049 97.211 118.026 97.2435 118.011 97.2797C117.995 97.3159 117.988 97.3549 117.988 97.3943C117.988 97.4762 118.021 97.5548 118.078 97.6127C118.136 97.6707 118.214 97.7032 118.296 97.7032L118.293 97.697Z" fill="#171717"/>
<path d="M130.575 96.169C130.615 96.1698 130.654 96.1619 130.69 96.1459C130.726 96.1299 130.758 96.1061 130.784 96.0763C130.838 96.019 130.868 95.9433 130.868 95.8647C130.868 95.786 130.838 95.7103 130.784 95.653C130.758 95.6246 130.725 95.6023 130.689 95.5874C130.653 95.5724 130.614 95.5653 130.575 95.5665C130.536 95.5657 130.497 95.5729 130.46 95.5878C130.424 95.6027 130.391 95.6249 130.363 95.653C130.324 95.6964 130.298 95.7499 130.288 95.8075C130.278 95.8651 130.284 95.9244 130.307 95.9784C130.329 96.0324 130.366 96.079 130.413 96.1128C130.461 96.1465 130.517 96.166 130.575 96.169V96.169Z" fill="#171717"/>
<path d="M131.95 96.9409C131.64 96.7791 131.294 96.6973 130.944 96.703C130.494 96.6927 130.05 96.8117 129.664 97.0459C129.305 97.2672 129.018 97.5894 128.839 97.9727V96.6937H128.347V99.6256H127.759C127.617 99.6374 127.475 99.62 127.34 99.5743C127.205 99.5286 127.08 99.4556 126.975 99.3599C126.881 99.2503 126.809 99.1232 126.765 98.9859C126.72 98.8486 126.702 98.7038 126.713 98.5597V98.5597C126.713 98.5227 126.713 98.4887 126.713 98.4516C126.718 98.14 126.648 97.8317 126.51 97.5526C126.383 97.2989 126.19 97.0851 125.95 96.9347C125.705 96.7809 125.42 96.7016 125.131 96.7061C124.783 96.6943 124.444 96.8195 124.187 97.0552C123.911 97.3353 123.722 97.6893 123.642 98.0747C123.598 98.2537 123.565 98.4353 123.544 98.6184C123.544 98.6431 123.528 98.7266 123.507 98.8594C123.487 98.9848 123.452 99.1072 123.402 99.224C123.347 99.3536 123.252 99.462 123.131 99.5329C123.003 99.6065 122.857 99.6438 122.71 99.641H121.666V95.3652H121.168V100.104H122.707C122.935 100.11 123.162 100.055 123.362 99.9438C123.548 99.8384 123.698 99.679 123.793 99.4866V99.4866C123.964 99.6862 124.173 99.8491 124.408 99.9654C124.634 100.07 124.88 100.124 125.128 100.126C125.4 100.127 125.667 100.058 125.904 99.9253C126.14 99.7922 126.336 99.5967 126.47 99.3599C126.516 99.4943 126.585 99.6197 126.673 99.7306C126.812 99.8664 126.977 99.9711 127.159 100.038C127.341 100.104 127.535 100.131 127.729 100.117H132.858V98.5721C132.864 98.235 132.777 97.9028 132.609 97.6113C132.456 97.3305 132.228 97.0983 131.95 96.9409ZM126.079 99.1035C125.989 99.2739 125.852 99.4153 125.685 99.5113C125.519 99.6041 125.331 99.652 125.141 99.6503C124.926 99.6474 124.715 99.5934 124.525 99.4927C124.309 99.3785 124.12 99.2183 123.971 99.0231L124.03 98.7142C124.056 98.5137 124.097 98.3154 124.153 98.121C124.216 97.8605 124.345 97.621 124.528 97.4259C124.611 97.349 124.708 97.2892 124.813 97.25C124.919 97.2108 125.031 97.1928 125.144 97.1973C125.293 97.1914 125.442 97.2202 125.578 97.2812C125.715 97.3423 125.836 97.4341 125.931 97.5495C126.14 97.8052 126.249 98.1277 126.239 98.4578C126.243 98.6804 126.188 98.9 126.079 99.0942V99.1035ZM132.39 99.6441H128.833V99.1066C128.842 98.7652 128.949 98.4337 129.141 98.1519C129.34 97.8624 129.606 97.6259 129.916 97.463C130.235 97.295 130.59 97.208 130.95 97.2096C131.141 97.1982 131.332 97.2254 131.513 97.2896C131.693 97.3538 131.859 97.4538 132 97.5835C132.129 97.7135 132.23 97.869 132.296 98.0403C132.362 98.2115 132.392 98.3947 132.384 98.5783L132.39 99.6441Z" fill="#171717"/>
<path d="M137.835 100.735C137.805 100.761 137.782 100.794 137.766 100.83C137.75 100.866 137.742 100.905 137.742 100.945C137.741 100.986 137.749 101.026 137.765 101.063C137.781 101.1 137.805 101.134 137.835 101.161C137.892 101.216 137.968 101.247 138.047 101.248C138.087 101.249 138.126 101.241 138.163 101.226C138.199 101.21 138.232 101.187 138.259 101.158C138.296 101.115 138.321 101.062 138.33 101.005C138.339 100.948 138.332 100.89 138.31 100.837C138.288 100.785 138.252 100.739 138.205 100.705C138.159 100.672 138.104 100.652 138.047 100.648C137.968 100.649 137.892 100.68 137.835 100.735V100.735Z" fill="#171717"/>
<path d="M143.628 96.9325C143.382 96.7788 143.097 96.6995 142.806 96.7039C142.458 96.6922 142.118 96.8187 141.862 97.0561C141.587 97.3353 141.398 97.6882 141.317 98.0725C141.274 98.2516 141.242 98.4332 141.222 98.6162C141.222 98.6409 141.203 98.7213 141.182 98.8572C141.164 98.9829 141.128 99.1056 141.077 99.2218C141.025 99.3523 140.931 99.4613 140.809 99.5307C140.681 99.6064 140.534 99.6448 140.385 99.6419H140.04C139.942 99.6486 139.845 99.626 139.76 99.5771C139.689 99.5204 139.639 99.4408 139.619 99.3515C139.568 99.1727 139.528 98.9911 139.499 98.8078C139.448 98.4434 139.344 98.0884 139.191 97.7543C139.061 97.4965 138.869 97.2748 138.634 97.1086C138.43 96.9696 138.204 96.8653 137.966 96.7996C137.72 96.7353 137.467 96.7031 137.212 96.7039C136.957 96.7025 136.703 96.7326 136.455 96.7935L136.544 97.2785C136.752 97.2207 136.966 97.1926 137.181 97.1951C137.389 97.1945 137.595 97.2194 137.797 97.2692C137.987 97.3149 138.168 97.3921 138.332 97.4979C138.517 97.6263 138.666 97.7995 138.766 98.0014C138.891 98.2789 138.978 98.5719 139.025 98.8727C139.04 98.9592 139.052 99.0271 139.055 99.0735C139.086 99.261 139.127 99.4467 139.179 99.6296H137.698C137.244 99.5977 136.792 99.7195 136.415 99.9756C136.276 100.102 136.164 100.257 136.088 100.43C136.012 100.602 135.973 100.789 135.973 100.978C135.973 101.167 136.012 101.354 136.088 101.526C136.164 101.699 136.276 101.854 136.415 101.981C136.792 102.237 137.244 102.359 137.698 102.327H138.372V101.854H137.698C137.376 101.877 137.055 101.803 136.775 101.641C136.684 101.556 136.611 101.454 136.561 101.339C136.511 101.225 136.485 101.101 136.485 100.977C136.485 100.852 136.511 100.728 136.561 100.614C136.611 100.5 136.684 100.397 136.775 100.312C137.056 100.154 137.377 100.082 137.698 100.105H140.376C140.606 100.11 140.833 100.054 141.034 99.9416C141.22 99.8362 141.37 99.6768 141.465 99.4844V99.4844C141.633 99.6862 141.843 99.8486 142.08 99.9601C142.304 100.067 142.549 100.123 142.797 100.124C143.069 100.125 143.336 100.056 143.573 99.9231C143.814 99.788 144.014 99.5893 144.151 99.3484C144.303 99.076 144.381 98.7679 144.376 98.4556C144.38 98.1443 144.312 97.8363 144.176 97.5566C144.052 97.3034 143.863 97.088 143.628 96.9325V96.9325ZM143.742 99.0951C143.648 99.2635 143.511 99.4033 143.345 99.4998C143.179 99.5933 142.991 99.6413 142.8 99.6388C142.586 99.6368 142.374 99.5827 142.185 99.4813C141.968 99.3664 141.778 99.2063 141.628 99.0117L141.686 98.7027C141.713 98.5022 141.754 98.304 141.809 98.1096C141.875 97.85 142.004 97.6111 142.185 97.4144C142.352 97.2603 142.573 97.1782 142.8 97.1858C142.95 97.18 143.098 97.2087 143.235 97.2698C143.372 97.3308 143.492 97.4226 143.588 97.538C143.797 97.7933 143.906 98.1161 143.896 98.4463C143.902 98.6734 143.849 98.8981 143.742 99.0982V99.0951Z" fill="#171717"/>
<path d="M147.861 99.6345H146.811H145.768V95.3711H145.27V100.11H146.811V100.113H148.359V97.1414H147.861V99.6345Z" fill="#171717"/>
<path d="M148.114 95.8633C148.034 95.8636 147.956 95.8958 147.899 95.9529C147.87 95.9785 147.846 96.0104 147.83 96.0461C147.814 96.0819 147.806 96.1207 147.807 96.1599C147.806 96.1999 147.814 96.2396 147.83 96.2764C147.846 96.3131 147.87 96.3461 147.899 96.373C147.956 96.4313 148.033 96.4646 148.114 96.4657C148.154 96.4659 148.193 96.4578 148.229 96.4418C148.265 96.4258 148.297 96.4024 148.324 96.373C148.352 96.3455 148.375 96.3124 148.39 96.2758C148.406 96.2391 148.413 96.1996 148.413 96.1599C148.413 96.121 148.405 96.0825 148.39 96.0469C148.375 96.0112 148.352 95.9792 148.324 95.9529C148.297 95.9245 148.264 95.902 148.228 95.8866C148.192 95.8712 148.153 95.8632 148.114 95.8633V95.8633Z" fill="#171717"/>
<path d="M152.161 97.1426V99.6358H150.392V97.1426H149.894V100.365C149.91 100.548 149.864 100.73 149.764 100.884C149.714 100.939 149.652 100.982 149.583 101.009C149.513 101.037 149.439 101.048 149.364 101.041C149.227 101.039 149.09 101.022 148.955 100.992L148.854 101.437C149.047 101.489 149.247 101.517 149.447 101.52C149.58 101.531 149.714 101.51 149.838 101.46C149.961 101.41 150.072 101.333 150.161 101.233C150.334 100.978 150.415 100.672 150.392 100.365V100.112H152.66V97.1426H152.161Z" fill="#171717"/>
<path d="M152.037 100.695C151.957 100.695 151.879 100.726 151.822 100.782C151.793 100.809 151.77 100.841 151.755 100.877C151.74 100.914 151.732 100.953 151.732 100.992C151.733 101.073 151.765 101.151 151.822 101.208C151.879 101.264 151.956 101.295 152.036 101.295C152.115 101.295 152.192 101.264 152.249 101.208C152.277 101.18 152.298 101.147 152.313 101.11C152.327 101.073 152.334 101.034 152.332 100.995C152.334 100.956 152.327 100.917 152.313 100.881C152.299 100.845 152.277 100.812 152.249 100.785C152.193 100.729 152.117 100.696 152.037 100.695Z" fill="#171717"/>
<path d="M2.55203 107.959C1.79197 107.897 1.17961 107.814 1.17961 107.412C1.17961 107.01 1.85659 106.822 2.43202 106.828C2.92066 106.808 3.39805 106.979 3.76443 107.304L4.07215 107.044C3.60847 106.656 3.02029 106.45 2.41663 106.464C1.55195 106.464 0.78573 106.813 0.78573 107.424C0.78573 108.036 1.61349 108.255 2.47818 108.33C3.34286 108.404 3.82598 108.503 3.82598 108.895C3.82598 109.287 3.37056 109.547 2.59511 109.547C1.99038 109.573 1.39915 109.362 0.945743 108.96L0.671875 109.238C1.19948 109.685 1.87121 109.923 2.56126 109.908C3.61365 109.908 4.21985 109.466 4.21985 108.867C4.21985 108.268 3.53672 108.033 2.55203 107.959Z" fill="#171717"/>
<path d="M8.6014 107.188C8.35514 107.179 8.11168 107.243 7.90149 107.372C7.69131 107.501 7.52374 107.69 7.41977 107.914C7.36347 107.69 7.22919 107.494 7.04125 107.361C6.8533 107.227 6.62408 107.166 6.39507 107.188C6.16992 107.178 5.9464 107.231 5.74889 107.339C5.55137 107.448 5.38745 107.61 5.27498 107.806V107.284H4.89648V109.811H5.28729V108.214C5.36722 108.008 5.50803 107.832 5.69072 107.709C5.87341 107.587 6.08918 107.523 6.30891 107.528C6.87203 107.528 7.1182 107.868 7.1182 108.399V109.811H7.4967V109.502V108.374C7.4967 108.328 7.4967 108.278 7.4967 108.232C7.57618 108.023 7.7177 107.844 7.90209 107.718C8.08649 107.593 8.30483 107.528 8.52755 107.531C9.09067 107.531 9.33684 107.871 9.33684 108.402V109.814H9.68764V108.374C9.68764 107.722 9.37377 107.188 8.6014 107.188Z" fill="#171717"/>
<path d="M13.1555 108.406C13.1555 107.606 12.6354 107.186 11.7923 107.186C11.3579 107.184 10.9317 107.304 10.5614 107.532L10.7368 107.81C11.029 107.614 11.3734 107.512 11.7246 107.516C12.42 107.516 12.7647 107.794 12.7647 108.406V108.616C12.6283 108.447 12.454 108.313 12.2561 108.225C12.0582 108.137 11.8423 108.097 11.6261 108.109C11.0753 108.109 10.3398 108.338 10.3398 109.005C10.3398 109.673 11.0753 109.901 11.6261 109.901C11.8422 109.913 12.0579 109.873 12.2558 109.785C12.4536 109.697 12.628 109.563 12.7647 109.395V109.395C12.7631 109.536 12.8004 109.675 12.8724 109.796H13.2878C13.2018 109.647 13.1601 109.477 13.1678 109.305L13.1555 108.406ZM12.7739 109.052C12.6502 109.23 12.4818 109.373 12.2856 109.465C12.0895 109.557 11.8726 109.596 11.6569 109.577C11.2876 109.577 10.7153 109.472 10.7153 108.996C10.7153 108.52 11.2876 108.418 11.6569 108.418C11.8741 108.401 12.0919 108.442 12.2881 108.537C12.4844 108.632 12.652 108.778 12.7739 108.959V109.052Z" fill="#171717"/>
<path d="M14.4273 106.375H14.0488V109.807H14.4273V106.375Z" fill="#171717"/>
<path d="M15.7457 106.375H15.3672V109.807H15.7457V106.375Z" fill="#171717"/>
<path d="M21.4244 108.289H21.0459C21.055 108.572 20.9718 108.85 20.8089 109.08L19.4611 108.088C19.058 107.78 18.7811 107.616 18.7811 107.328C18.7811 107.041 19.0734 106.822 19.5657 106.822C19.784 106.803 20.0025 106.856 20.1884 106.972C20.3743 107.089 20.5175 107.262 20.5966 107.467L20.9382 107.328C20.8286 107.06 20.6378 106.832 20.3927 106.678C20.1476 106.524 19.8605 106.451 19.5719 106.47C18.8734 106.47 18.3841 106.816 18.3841 107.344C18.3849 107.455 18.4101 107.565 18.458 107.665C18.5059 107.766 18.5752 107.854 18.6611 107.925C18.4734 107.991 18.3095 108.111 18.19 108.27C18.0706 108.43 18.0011 108.621 17.9902 108.821C17.9902 109.439 18.6857 109.902 19.6088 109.902C20.0461 109.924 20.4786 109.802 20.8397 109.553L21.1874 109.809H21.8029L21.1043 109.3C21.3205 109.008 21.4332 108.652 21.4244 108.289V108.289ZM19.6365 109.55C18.9842 109.55 18.4057 109.318 18.4057 108.799C18.4123 108.646 18.4676 108.499 18.5633 108.379C18.6591 108.26 18.7904 108.174 18.938 108.135L19.0796 108.24L20.5535 109.33C20.2748 109.489 19.9567 109.565 19.6365 109.55V109.55Z" fill="#171717"/>
<path d="M25.8823 108.546L24.2606 106.562H23.8359V109.81H24.2144V107.109L25.8607 109.108H25.8884L27.5316 107.109V109.81H27.9193V106.562H27.5039L25.8823 108.546Z" fill="#171717"/>
<path d="M30.2316 107.184C29.2807 107.184 28.7207 107.712 28.7207 108.549C28.7207 109.386 29.2807 109.908 30.2593 109.908C30.7544 109.94 31.242 109.775 31.6163 109.448L31.3671 109.182C31.2231 109.322 31.0513 109.429 30.863 109.498C30.6747 109.566 30.4742 109.593 30.2747 109.578C29.6039 109.578 29.1423 109.269 29.1053 108.62H31.6933C31.6978 108.593 31.6978 108.564 31.6933 108.537C31.7025 107.672 31.1363 107.184 30.2316 107.184ZM29.1238 108.311C29.2223 107.777 29.6562 107.508 30.2377 107.508C30.4855 107.48 30.7345 107.548 30.9349 107.697C31.1352 107.846 31.272 108.065 31.3178 108.311H29.1238Z" fill="#171717"/>
<path d="M34.7902 107.765C34.652 107.574 34.4683 107.421 34.256 107.32C34.0437 107.218 33.8095 107.172 33.5747 107.184C33.3917 107.176 33.2088 107.204 33.0371 107.269C32.8654 107.333 32.7085 107.431 32.5759 107.558C32.4433 107.685 32.3377 107.838 32.2656 108.007C32.1934 108.176 32.1562 108.358 32.1562 108.542C32.1562 108.726 32.1934 108.908 32.2656 109.077C32.3377 109.246 32.4433 109.399 32.5759 109.526C32.7085 109.653 32.8654 109.752 33.0371 109.816C33.2088 109.88 33.3917 109.909 33.5747 109.9C33.8095 109.913 34.0437 109.866 34.256 109.765C34.4683 109.663 34.652 109.51 34.7902 109.319V109.807H35.1687V106.375H34.7902V107.765ZM34.7902 108.945C34.6805 109.144 34.5171 109.307 34.3189 109.417C34.1207 109.526 33.8958 109.577 33.6701 109.563C32.9778 109.563 32.59 109.199 32.59 108.55C32.59 107.901 32.9778 107.527 33.6701 107.527C33.8958 107.514 34.1205 107.565 34.3186 107.675C34.5167 107.784 34.6802 107.947 34.7902 108.145V108.945Z" fill="#171717"/>
<path d="M36.4761 107.281H36.0977V109.808H36.4761V107.281Z" fill="#171717"/>
<path d="M36.2841 106.397C36.2367 106.402 36.1918 106.42 36.1546 106.45C36.1175 106.48 36.0898 106.52 36.0749 106.565C36.06 106.611 36.0585 106.66 36.0706 106.706C36.0827 106.752 36.1079 106.794 36.1431 106.826C36.1783 106.858 36.222 106.879 36.269 106.887C36.316 106.895 36.3641 106.888 36.4077 106.869C36.4513 106.85 36.4884 106.818 36.5145 106.779C36.5406 106.739 36.5546 106.692 36.5548 106.644C36.5537 106.61 36.5457 106.576 36.5314 106.545C36.517 106.514 36.4966 106.486 36.4714 106.463C36.4462 106.44 36.4166 106.422 36.3844 106.411C36.3522 106.4 36.3181 106.395 36.2841 106.397V106.397Z" fill="#171717"/>
<path d="M39.7516 108.865C39.6533 109.08 39.4939 109.26 39.2934 109.384C39.093 109.508 38.8605 109.569 38.6254 109.56C38.0561 109.56 37.773 109.252 37.773 108.68V107.28H37.3945V108.708C37.3945 109.4 37.7699 109.9 38.5485 109.9C38.7851 109.911 39.0204 109.859 39.2313 109.751C39.4422 109.642 39.6215 109.481 39.7516 109.282V109.805H40.1301V107.277H39.7516V108.865Z" fill="#171717"/>
<path d="M44.7471 107.188C44.5005 107.179 44.2569 107.244 44.0463 107.373C43.8358 107.502 43.6675 107.69 43.5623 107.914C43.506 107.69 43.3718 107.494 43.1838 107.361C42.9959 107.227 42.7667 107.166 42.5376 107.188C42.313 107.179 42.0901 107.231 41.8932 107.34C41.6963 107.449 41.5329 107.61 41.4206 107.806V107.284H41.0391V109.811H41.4206V108.214C41.5006 108.008 41.6414 107.832 41.8241 107.709C42.0068 107.587 42.2225 107.523 42.4423 107.528C43.0054 107.528 43.2485 107.868 43.2485 108.399V109.811H43.63V109.502V108.374C43.63 108.328 43.63 108.278 43.63 108.232C43.709 108.023 43.8499 107.844 44.0338 107.719C44.2177 107.593 44.4355 107.528 44.6578 107.531C45.224 107.531 45.4671 107.871 45.4671 108.402V109.814H45.8425V108.374C45.8333 107.722 45.5194 107.188 44.7471 107.188Z" fill="#171717"/>
<path d="M48.6748 108.339H50.9581V107.977H48.6748V106.924H51.3704V106.562H48.2871V109.81H51.4166V109.448H48.6748V108.339Z" fill="#171717"/>
<path d="M53.7164 107.189C53.4797 107.178 53.2442 107.229 53.0332 107.338C52.8222 107.446 52.643 107.608 52.5133 107.807V107.285H52.1348V109.812H52.5133V108.224C52.6124 108.009 52.7725 107.829 52.9734 107.705C53.1743 107.582 53.4071 107.52 53.6426 107.529C54.2088 107.529 54.4919 107.838 54.4919 108.412V109.812H54.8704V108.385C54.8704 107.689 54.495 107.189 53.7164 107.189Z" fill="#171717"/>
<path d="M56.7653 109.577C56.4884 109.577 56.2545 109.441 56.2545 109.129V107.631H57.4146V107.297H56.2545V106.707H55.873V107.297H55.3652V107.631H55.873V109.176C55.873 109.667 56.2484 109.908 56.7007 109.908C56.9633 109.906 57.219 109.822 57.4331 109.67L57.2977 109.398C57.1398 109.505 56.9557 109.567 56.7653 109.577V109.577Z" fill="#171717"/>
<path d="M59.255 107.182C58.3042 107.182 57.7441 107.71 57.7441 108.547C57.7441 109.384 58.3042 109.907 59.2827 109.907C59.7778 109.939 60.2655 109.773 60.6398 109.446L60.3905 109.181C60.2474 109.321 60.0764 109.429 59.8886 109.498C59.7009 109.567 59.5007 109.596 59.3012 109.582C58.6304 109.582 58.1688 109.273 58.1319 108.624H60.7198C60.7228 108.597 60.7228 108.569 60.7198 108.541C60.7259 107.67 60.1536 107.182 59.255 107.182ZM58.1472 108.309C58.2426 107.775 58.6765 107.506 59.2612 107.506C59.509 107.478 59.758 107.546 59.9583 107.695C60.1586 107.844 60.2954 108.063 60.3413 108.309H58.1472Z" fill="#171717"/>
<path d="M61.8004 107.903V107.285H61.4219V109.812H61.8004V108.341C61.903 108.098 62.0793 107.894 62.3041 107.758C62.529 107.621 62.7909 107.56 63.0528 107.581V107.229C62.8024 107.214 62.5527 107.269 62.3315 107.388C62.1104 107.507 61.9265 107.685 61.8004 107.903Z" fill="#171717"/>
<path d="M65.1855 107.185C64.9481 107.169 64.7105 107.214 64.4951 107.315C64.2798 107.417 64.0938 107.572 63.9547 107.766V107.281H63.5762V110.735H63.9547V109.32C64.0933 109.514 64.2793 109.669 64.4948 109.771C64.7102 109.873 64.948 109.917 65.1855 109.9C65.3686 109.909 65.5515 109.881 65.7231 109.816C65.8948 109.752 66.0517 109.653 66.1844 109.527C66.317 109.4 66.4226 109.247 66.4947 109.078C66.5668 108.909 66.604 108.727 66.604 108.543C66.604 108.359 66.5668 108.177 66.4947 108.008C66.4226 107.838 66.317 107.686 66.1844 107.559C66.0517 107.432 65.8948 107.333 65.7231 107.269C65.5515 107.205 65.3686 107.176 65.1855 107.185V107.185ZM65.0871 109.561C64.8617 109.574 64.6372 109.523 64.4395 109.414C64.2418 109.305 64.079 109.141 63.97 108.943V108.14C64.0787 107.941 64.2415 107.777 64.4392 107.668C64.637 107.558 64.8617 107.508 65.0871 107.522C65.7825 107.522 66.1702 107.889 66.1702 108.538C66.1702 109.187 65.7825 109.576 65.0871 109.576V109.561Z" fill="#171717"/>
<path d="M67.6519 107.903V107.285H67.2734V109.812H67.6519V108.341C67.7553 108.099 67.9318 107.895 68.1564 107.759C68.3811 107.623 68.6427 107.561 68.9043 107.581V107.229C68.6539 107.214 68.4042 107.269 68.1831 107.388C67.9619 107.507 67.778 107.685 67.6519 107.903Z" fill="#171717"/>
<path d="M69.8336 107.281H69.4551V109.808H69.8336V107.281Z" fill="#171717"/>
<path d="M69.6466 106.893C69.7945 106.893 69.9143 106.782 69.9143 106.646C69.9143 106.509 69.7945 106.398 69.6466 106.398C69.4988 106.398 69.3789 106.509 69.3789 106.646C69.3789 106.782 69.4988 106.893 69.6466 106.893Z" fill="#171717"/>
<path d="M71.9868 108.342C71.4359 108.302 70.9836 108.24 70.9836 107.925C70.9836 107.61 71.5067 107.496 71.8883 107.499C72.2682 107.492 72.6377 107.624 72.9284 107.869L73.1684 107.616C72.8066 107.337 72.3632 107.185 71.9067 107.184C71.1651 107.184 70.6082 107.452 70.6082 107.95C70.6082 108.447 71.2421 108.614 71.9067 108.67C72.5714 108.725 72.9253 108.809 72.9253 109.124C72.9253 109.439 72.5129 109.59 72.0021 109.59C71.5498 109.598 71.1109 109.436 70.7713 109.136L70.5312 109.365C70.937 109.721 71.4598 109.915 71.9991 109.908C72.8607 109.908 73.3161 109.541 73.3161 109.087C73.3161 108.633 72.7437 108.404 71.9868 108.342Z" fill="#171717"/>
<path d="M75.2746 107.184C74.3237 107.184 73.7637 107.712 73.7637 108.549C73.7637 109.386 74.3237 109.908 75.3023 109.908C75.7974 109.941 76.2852 109.775 76.6593 109.448L76.4131 109.182C76.2692 109.322 76.0976 109.431 75.9094 109.5C75.7212 109.569 75.5207 109.598 75.3207 109.584C74.6499 109.584 74.1883 109.275 74.1514 108.626H76.7393C76.7439 108.599 76.7439 108.571 76.7393 108.543C76.7455 107.672 76.1731 107.184 75.2746 107.184ZM74.1668 108.311C74.2653 107.777 74.6991 107.508 75.2807 107.508C75.5286 107.48 75.778 107.547 75.9785 107.696C76.179 107.845 76.3156 108.065 76.3608 108.311H74.1668Z" fill="#171717"/>
<path d="M78.6628 108.34C78.112 108.3 77.6597 108.238 77.6597 107.923C77.6597 107.608 78.1797 107.494 78.5644 107.497C78.9442 107.491 79.3135 107.622 79.6044 107.867L79.8445 107.614C79.4825 107.335 79.0392 107.183 78.5828 107.182C77.8381 107.182 77.2843 107.45 77.2843 107.948C77.2843 108.445 77.9182 108.612 78.5828 108.668C79.2475 108.723 79.5983 108.807 79.5983 109.122C79.5983 109.437 79.189 109.588 78.6751 109.588C78.2228 109.596 77.7839 109.434 77.4443 109.134L77.2012 109.363C77.6082 109.719 78.1319 109.913 78.6721 109.907C79.5306 109.907 79.9891 109.539 79.9891 109.085C79.9891 108.631 79.4198 108.402 78.6628 108.34Z" fill="#171717"/>
<path d="M82.5783 106.562H82.1875V109.81H85.0523V109.448H82.5783V106.562Z" fill="#171717"/>
<path d="M86.8862 107.184C85.9262 107.184 85.3477 107.712 85.3477 108.549C85.3477 109.386 85.9169 109.908 86.8862 109.908C87.8556 109.908 88.4248 109.383 88.4248 108.549C88.4248 107.715 87.8463 107.184 86.8862 107.184ZM86.8862 109.569C86.2277 109.569 85.7385 109.229 85.7385 108.549C85.7385 107.869 86.2277 107.523 86.8862 107.523C87.5448 107.523 88.031 107.86 88.031 108.549C88.031 109.238 87.5417 109.578 86.8862 109.578V109.569Z" fill="#171717"/>
<path d="M91.7015 108.406C91.7015 107.606 91.1845 107.186 90.3383 107.186C89.9039 107.183 89.4775 107.303 89.1074 107.532L89.2828 107.81C89.5749 107.614 89.9194 107.511 90.2706 107.516C90.963 107.516 91.3107 107.794 91.3107 108.406V108.616C91.1735 108.447 90.9986 108.314 90.8003 108.226C90.6019 108.137 90.3856 108.098 90.1691 108.109C89.6183 108.109 88.8828 108.338 88.8828 109.005C88.8828 109.673 89.6183 109.901 90.1691 109.901C90.3856 109.912 90.6016 109.872 90.7998 109.784C90.9981 109.696 91.173 109.563 91.3107 109.395V109.395C91.3081 109.536 91.3443 109.675 91.4153 109.796H91.8184C91.7338 109.647 91.6923 109.477 91.6984 109.305L91.7015 108.406ZM91.323 109.052C91.2004 109.228 91.0339 109.369 90.8402 109.462C90.6464 109.554 90.4321 109.593 90.2183 109.577C89.846 109.577 89.2736 109.472 89.2736 108.996C89.2736 108.52 89.846 108.418 90.2183 108.418C90.4346 108.4 90.6519 108.44 90.8481 108.533C91.0442 108.626 91.2123 108.77 91.3353 108.95L91.323 109.052Z" fill="#171717"/>
<path d="M94.1587 107.189C93.9224 107.178 93.6876 107.23 93.4772 107.338C93.2668 107.447 93.0881 107.608 92.9586 107.807V107.285H92.5801V109.812H92.9586V108.224C93.0576 108.01 93.2172 107.83 93.4174 107.706C93.6177 107.582 93.8498 107.521 94.0848 107.529C94.6541 107.529 94.9372 107.838 94.9372 108.412V109.812H95.3157V108.384C95.3157 107.689 94.9403 107.189 94.1587 107.189Z" fill="#171717"/>
<path d="M99.4799 108.483H100.948V108.903C100.711 109.354 100.182 109.542 99.5415 109.542C98.5506 109.542 97.9321 109.085 97.9321 108.186C97.9321 107.287 98.5475 106.824 99.5138 106.824C99.7592 106.806 100.005 106.847 100.232 106.944C100.459 107.04 100.66 107.188 100.819 107.377L101.157 107.139C100.95 106.91 100.696 106.731 100.411 106.614C100.127 106.497 99.8205 106.445 99.5138 106.462C98.2829 106.462 97.5352 107.126 97.5352 108.186C97.5352 109.246 98.2737 109.907 99.5261 109.907C100.425 109.907 101.065 109.524 101.339 109.02V108.118H99.4922L99.4799 108.483Z" fill="#171717"/>
<path d="M104.422 108.865C104.323 109.08 104.163 109.261 103.962 109.385C103.761 109.508 103.528 109.569 103.292 109.56C102.726 109.56 102.443 109.252 102.443 108.68V107.28H102.064V108.708C102.064 109.4 102.437 109.9 103.218 109.9C103.455 109.911 103.69 109.859 103.901 109.751C104.112 109.642 104.291 109.481 104.422 109.282V109.805H104.8V107.277H104.422V108.865Z" fill="#171717"/>
<path d="M108.277 108.406C108.277 107.606 107.757 107.186 106.913 107.186C106.479 107.184 106.053 107.304 105.682 107.532L105.858 107.81C106.151 107.614 106.497 107.511 106.849 107.516C107.541 107.516 107.886 107.794 107.886 108.406V108.616C107.749 108.447 107.575 108.313 107.377 108.225C107.179 108.137 106.963 108.097 106.747 108.109C106.196 108.109 105.461 108.338 105.461 109.005C105.461 109.673 106.196 109.901 106.747 109.901C106.963 109.913 107.179 109.873 107.377 109.785C107.575 109.697 107.749 109.563 107.886 109.395V109.395C107.884 109.536 107.921 109.675 107.993 109.796H108.397C108.311 109.647 108.269 109.477 108.277 109.305V108.406ZM107.895 109.052C107.772 109.232 107.604 109.376 107.408 109.47C107.212 109.564 106.995 109.604 106.778 109.586C106.409 109.586 105.836 109.481 105.836 109.005C105.836 108.529 106.409 108.428 106.778 108.428C106.994 108.409 107.212 108.449 107.408 108.542C107.604 108.636 107.772 108.779 107.895 108.959V109.052Z" fill="#171717"/>
<path d="M109.536 107.903V107.285H109.154V109.812H109.536V108.341C109.639 108.099 109.815 107.894 110.04 107.758C110.264 107.622 110.526 107.56 110.788 107.581V107.229C110.538 107.214 110.288 107.268 110.067 107.387C109.846 107.506 109.662 107.685 109.536 107.903V107.903Z" fill="#171717"/>
<path d="M113.808 108.406C113.808 107.606 113.291 107.186 112.445 107.186C112.01 107.183 111.584 107.303 111.214 107.532L111.389 107.81C111.681 107.613 112.026 107.511 112.377 107.516C113.069 107.516 113.417 107.794 113.417 108.406V108.616C113.28 108.447 113.105 108.314 112.907 108.226C112.708 108.137 112.492 108.098 112.275 108.109C111.728 108.109 110.992 108.338 110.992 109.005C110.992 109.673 111.728 109.901 112.275 109.901C112.492 109.912 112.708 109.872 112.906 109.784C113.104 109.696 113.279 109.563 113.417 109.395V109.395C113.415 109.536 113.453 109.675 113.525 109.796H113.925C113.84 109.647 113.799 109.477 113.805 109.305L113.808 108.406ZM113.429 109.052C113.306 109.23 113.137 109.373 112.941 109.465C112.745 109.557 112.528 109.596 112.312 109.577C111.943 109.577 111.368 109.472 111.368 108.996C111.368 108.52 111.943 108.418 112.312 108.418C112.529 108.4 112.746 108.44 112.942 108.533C113.138 108.626 113.306 108.77 113.429 108.95V109.052Z" fill="#171717"/>
<path d="M116.266 107.189C116.03 107.178 115.795 107.23 115.585 107.338C115.374 107.447 115.195 107.608 115.066 107.807V107.285H114.688V109.812H115.066V108.224C115.165 108.01 115.325 107.83 115.525 107.706C115.725 107.582 115.957 107.521 116.192 107.529C116.762 107.529 117.045 107.838 117.045 108.412V109.812H117.423V108.384C117.423 107.689 117.048 107.189 116.266 107.189Z" fill="#171717"/>
<path d="M119.318 109.577C119.041 109.577 118.808 109.441 118.808 109.129V107.631H119.968V107.297H118.808V106.707H118.426V107.297H117.912V107.631H118.42V109.176C118.42 109.667 118.795 109.908 119.248 109.908C119.51 109.906 119.766 109.822 119.98 109.67L119.845 109.398C119.688 109.504 119.507 109.566 119.318 109.577Z" fill="#171717"/>
<path d="M121.808 107.182C120.857 107.182 120.297 107.71 120.297 108.547C120.297 109.384 120.857 109.907 121.835 109.907C122.331 109.939 122.818 109.773 123.192 109.446L122.943 109.181C122.799 109.321 122.628 109.429 122.44 109.498C122.251 109.567 122.051 109.596 121.851 109.582C121.183 109.582 120.722 109.273 120.685 108.624H123.273C123.276 108.597 123.276 108.569 123.273 108.541C123.279 107.67 122.706 107.182 121.808 107.182ZM120.7 108.309C120.795 107.775 121.229 107.506 121.814 107.506C122.062 107.478 122.311 107.546 122.511 107.695C122.711 107.844 122.848 108.063 122.894 108.309H120.7Z" fill="#171717"/>
<path d="M125.296 107.184C124.345 107.184 123.785 107.712 123.785 108.549C123.785 109.386 124.345 109.908 125.324 109.908C125.82 109.941 126.309 109.776 126.684 109.448L126.435 109.182C126.291 109.323 126.119 109.431 125.931 109.5C125.743 109.569 125.542 109.598 125.342 109.584C124.674 109.584 124.213 109.275 124.176 108.626H126.761C126.765 108.599 126.765 108.571 126.761 108.543C126.761 107.672 126.188 107.184 125.296 107.184ZM124.188 108.311C124.284 107.777 124.718 107.508 125.299 107.508C125.881 107.508 126.272 107.749 126.382 108.311H124.188Z" fill="#171717"/>
<path d="M131.177 106.562H129.023V109.81H129.411V108.623H131.187C131.928 108.623 132.418 108.24 132.418 107.591C132.418 106.943 131.919 106.562 131.177 106.562ZM131.15 108.262H129.402V106.924H131.144C131.67 106.924 132.011 107.137 132.011 107.591C132.011 108.045 131.676 108.262 131.144 108.262H131.15Z" fill="#171717"/>
<path d="M133.448 107.903V107.285H133.066V109.812H133.448V108.341C133.55 108.099 133.726 107.895 133.95 107.759C134.175 107.622 134.436 107.56 134.697 107.581V107.229C134.447 107.214 134.198 107.269 133.977 107.388C133.757 107.507 133.573 107.685 133.448 107.903V107.903Z" fill="#171717"/>
<path d="M136.412 107.184C135.452 107.184 134.873 107.712 134.873 108.549C134.873 109.386 135.442 109.908 136.412 109.908C137.381 109.908 137.95 109.383 137.95 108.549C137.95 107.715 137.372 107.184 136.412 107.184ZM136.412 109.569C135.756 109.569 135.267 109.229 135.267 108.549C135.267 107.869 135.756 107.523 136.412 107.523C137.067 107.523 137.556 107.86 137.556 108.549C137.556 109.238 137.067 109.578 136.412 109.578V109.569Z" fill="#171717"/>
<path d="M141.06 107.767C140.92 107.574 140.734 107.42 140.518 107.318C140.303 107.216 140.066 107.171 139.829 107.187C139.646 107.178 139.463 107.206 139.291 107.271C139.119 107.335 138.962 107.434 138.83 107.56C138.697 107.687 138.592 107.84 138.519 108.009C138.447 108.178 138.41 108.36 138.41 108.544C138.41 108.728 138.447 108.91 138.519 109.079C138.592 109.249 138.697 109.401 138.83 109.528C138.962 109.655 139.119 109.754 139.291 109.818C139.463 109.882 139.646 109.911 139.829 109.902C140.065 109.912 140.301 109.865 140.515 109.763C140.729 109.662 140.916 109.511 141.06 109.321V109.578C141.06 110.196 140.647 110.505 139.909 110.505C139.556 110.506 139.211 110.404 138.915 110.211L138.733 110.505C139.098 110.73 139.518 110.846 139.946 110.841C140.758 110.841 141.438 110.452 141.438 109.544V107.295H141.06V107.767ZM141.06 108.947C140.95 109.146 140.787 109.31 140.588 109.419C140.39 109.528 140.165 109.579 139.939 109.565C139.247 109.565 138.859 109.201 138.859 108.552C138.859 107.903 139.247 107.529 139.939 107.529C140.165 107.516 140.39 107.567 140.588 107.676C140.786 107.786 140.95 107.949 141.06 108.147V108.947Z" fill="#171717"/>
<path d="M142.729 107.903V107.285H142.348V109.812H142.729V108.341C142.832 108.099 143.008 107.895 143.232 107.759C143.456 107.622 143.717 107.56 143.979 107.581V107.229C143.729 107.214 143.479 107.269 143.259 107.388C143.038 107.507 142.855 107.685 142.729 107.903V107.903Z" fill="#171717"/>
<path d="M146.999 108.406C146.999 107.606 146.482 107.186 145.636 107.186C145.202 107.184 144.775 107.304 144.405 107.532L144.581 107.81C144.874 107.614 145.219 107.511 145.571 107.516C146.264 107.516 146.611 107.794 146.611 108.406V108.616C146.474 108.447 146.299 108.314 146.101 108.225C145.903 108.137 145.686 108.098 145.47 108.109C144.919 108.109 144.184 108.338 144.184 109.005C144.184 109.673 144.919 109.901 145.47 109.901C145.686 109.912 145.902 109.872 146.101 109.784C146.299 109.696 146.474 109.563 146.611 109.395V109.395C146.609 109.536 146.645 109.674 146.716 109.796H147.119C147.033 109.647 146.992 109.477 146.999 109.305V108.406ZM146.621 109.052C146.497 109.231 146.328 109.374 146.131 109.468C145.935 109.562 145.718 109.603 145.501 109.586C145.131 109.586 144.559 109.481 144.559 109.005C144.559 108.529 145.131 108.428 145.501 108.428C145.717 108.409 145.935 108.448 146.132 108.541C146.329 108.635 146.497 108.779 146.621 108.959V109.052Z" fill="#171717"/>
<path d="M151.586 107.19C151.34 107.181 151.096 107.245 150.886 107.374C150.676 107.503 150.508 107.691 150.404 107.916C150.347 107.692 150.212 107.496 150.023 107.363C149.835 107.23 149.606 107.168 149.376 107.19C149.152 107.18 148.929 107.233 148.732 107.342C148.535 107.451 148.372 107.612 148.259 107.808V107.285H147.881V109.813H148.259V108.215C148.339 108.01 148.48 107.834 148.663 107.711C148.845 107.589 149.061 107.525 149.281 107.53C149.844 107.53 150.087 107.869 150.087 108.401V109.813H150.469V109.504V108.376C150.469 108.33 150.469 108.28 150.469 108.234C150.548 108.025 150.689 107.846 150.873 107.721C151.056 107.595 151.274 107.529 151.497 107.533C152.063 107.533 152.306 107.872 152.306 108.404V109.816H152.684V108.376C152.684 107.724 152.358 107.19 151.586 107.19Z" fill="#171717"/>
<path d="M15.3158 51.5605L10.5554 56.2256H16.9559L9.2168 63.8133V63.8535V70.5267L20.747 59.2224L25.2981 54.7581L28.5568 51.5667L15.3158 51.5605Z" fill="#1ECAD3"/>
<path d="M38.2121 57.1484C34.6826 57.1484 31.2792 58.0536 28.9406 59.8672L30.9531 63.6147C32.5932 62.2553 35.1349 61.4335 37.5967 61.4335C41.2493 61.4335 43.0525 63.2038 43.0525 66.2098V66.5404H37.3905C30.7469 66.5404 28.2852 69.4228 28.2852 73.0869C28.2852 76.9179 31.4423 79.6767 36.4489 79.6767C39.7292 79.6767 42.1078 78.6078 43.3387 76.7139V79.3894H48.1791V66.4971C48.1791 60.1452 44.5296 57.1484 38.2121 57.1484ZM43.0525 70.257C43.0525 73.3155 40.6369 75.9014 37.5905 75.9292H37.5136C34.8888 75.9292 33.3317 74.7336 33.3317 72.8799C33.3317 71.2765 34.2733 69.9573 37.7598 69.9573H43.0525V70.257Z" fill="#171717"/>
<path d="M56.1291 56.1616V57.5611H52.5195V61.6917H56.1291V79.4035H61.2556V61.6917H67.1392V57.5611H61.1079V56.245C61.1079 53.897 62.2157 52.7014 64.3482 52.7014C65.3609 52.7114 66.3472 53.0268 67.1792 53.6066L68.6131 49.7355C67.4654 48.9137 65.7421 48.543 63.9789 48.543C58.877 48.543 56.1291 51.549 56.1291 56.1616Z" fill="#171717"/>
<path d="M79.9063 57.1484C76.3799 57.1484 72.9734 58.0536 70.6379 59.8672L72.6472 63.6147C74.2874 62.2553 76.8291 61.4335 79.2909 61.4335C82.9435 61.4335 84.7467 63.2038 84.7467 66.2098V66.5404H79.0878C72.4411 66.5404 69.9824 69.4228 69.9824 73.0869C69.9824 76.9179 73.1396 79.6767 78.1431 79.6767C81.4233 79.6767 83.8051 78.6078 85.0359 76.7139V79.3894H89.8763V66.4971C89.8763 60.1452 86.2176 57.1484 79.9063 57.1484ZM84.7467 70.257C84.7467 73.3155 82.3311 75.9014 79.2847 75.9292H79.2078C76.586 75.9292 75.0259 74.7336 75.0259 72.8799C75.0259 71.2765 75.9675 69.9573 79.457 69.9573H84.7467V70.257Z" fill="#171717"/>
<path d="M100.864 48.8281H95.7344V79.389H100.864V48.8281Z" fill="#171717"/>
<path d="M115.949 57.1484C112.419 57.1484 109.016 58.0536 106.677 59.8672L108.68 63.6147C110.321 62.2553 112.862 61.4335 115.324 61.4335C118.977 61.4335 120.78 63.2038 120.78 66.2098V66.5404H115.142C108.499 66.5404 106.037 69.4228 106.037 73.0869C106.037 76.9179 109.194 79.6767 114.201 79.6767C117.481 79.6767 119.86 78.6078 121.091 76.7139V79.3894H125.913V66.4971C125.913 60.1452 122.266 57.1484 115.949 57.1484ZM120.789 70.257C120.789 73.3155 118.373 75.9014 115.327 75.9292H115.25C112.625 75.9292 111.068 74.7336 111.068 72.8799C111.068 71.2765 112.01 69.9573 115.496 69.9573H120.789V70.257Z" fill="#171717"/>
<path d="M143.511 57.148C140.477 57.148 137.892 58.1366 136.209 59.9502V48.8281H131.082V79.389H136.209V68.267C136.209 63.8614 138.67 61.637 142.323 61.637C145.603 61.637 147.533 63.5339 147.533 67.4452V79.389H152.659V66.7871C152.659 60.1448 148.763 57.148 143.511 57.148Z" fill="#171717"/>
<path d="M6.26381 48.3789H0.71875V79.5546H6.26381V48.3789Z" fill="#171717"/>
<path d="M11.9727 71.327L18.5917 79.5542H25.3337L15.8807 67.4961L11.9727 71.327Z" fill="#171717"/>
<path d="M7.95544 71.6657L7.95855 71.6626L7.94922 71.6718L7.98654 71.6348L7.95855 71.6626L7.95544 71.6657Z" fill="#171717"/>
<path d="M8.8415 7.35342C9.2179 7.35953 9.5915 7.2875 9.93887 7.14183C10.2862 6.99616 10.5999 6.78 10.8601 6.50691C11.1326 6.24597 11.3482 5.93114 11.4933 5.5823C11.6384 5.23347 11.7099 4.85821 11.7033 4.48022C11.7103 4.10172 11.6391 3.72587 11.4939 3.37648C11.3488 3.02708 11.133 2.71175 10.8601 2.45045C10.6002 2.17691 10.2866 1.96045 9.9392 1.81475C9.59175 1.66904 9.21798 1.59727 8.8415 1.60394C8.46561 1.59825 8.0926 1.6705 7.74579 1.81615C7.39899 1.96181 7.08584 2.17774 6.82595 2.45045C6.55371 2.71221 6.33829 3.02762 6.19319 3.37691C6.0481 3.7262 5.97648 4.10183 5.98281 4.48022C5.97672 4.85813 6.04847 5.23322 6.19356 5.58197C6.33864 5.93073 6.55395 6.24562 6.82595 6.50691C7.08596 6.77947 7.39912 6.9953 7.7459 7.14095C8.09268 7.28659 8.46564 7.35892 8.8415 7.35342V7.35342Z" fill="#171717"/>
<path d="M16.7963 7.35362C17.1747 7.36126 17.5506 7.28997 17.9002 7.14427C18.2498 6.99856 18.5654 6.7816 18.8272 6.50711C19.0992 6.24582 19.3145 5.93093 19.4596 5.58218C19.6047 5.23342 19.6765 4.85833 19.6704 4.48043C19.6767 4.10203 19.6051 3.7264 19.46 3.37711C19.3149 3.02782 19.0995 2.71241 18.8272 2.45066C18.5631 2.18229 18.2485 1.96923 17.9017 1.82381C17.5549 1.67839 17.1829 1.60352 16.8071 1.60352C16.4312 1.60352 16.0592 1.67839 15.7124 1.82381C15.3656 1.96923 15.0511 2.18229 14.7869 2.45066C14.5146 2.71241 14.2992 3.02782 14.1541 3.37711C14.009 3.7264 13.9374 4.10203 13.9437 4.48043C13.9377 4.85833 14.0094 5.23342 14.1545 5.58218C14.2996 5.93093 14.5149 6.24582 14.7869 6.50711C15.0461 6.77905 15.3582 6.99454 15.7039 7.14017C16.0496 7.2858 16.4214 7.35845 16.7963 7.35362V7.35362Z" fill="#171717"/>
<path d="M46.2131 28.6577H26.9531C25.3529 28.6577 24.0267 28.1789 23.0081 27.2304C21.9896 26.282 21.4695 24.8423 21.4695 22.9824V10.7544H16.4907V12.6822L15.8752 12.5957C15.0375 12.4878 14.1935 12.4362 13.3489 12.4412C11.1005 12.403 8.87195 12.8684 6.82528 13.8037C4.96503 14.6411 3.39389 16.0135 2.31048 17.7474C1.22708 19.4813 0.680074 21.4987 0.738629 23.5447C0.7151 25.2112 1.11545 26.8562 1.9018 28.3241C2.61101 29.6604 3.66268 30.7824 4.9482 31.5742C6.17068 32.3257 7.57664 32.7224 9.01007 32.7204C12.6442 32.7204 15.0721 31.1756 16.4322 27.9503L16.9184 26.7794L17.4108 27.9472C18.1164 29.6795 19.3709 31.1301 20.9803 32.0747C22.6081 33.0355 24.6206 33.5236 26.9654 33.5236H51.2043V3.83398H46.2131V28.6577ZM16.4907 20.5356C16.4907 22.7631 15.9614 24.5519 14.9182 25.8865C14.4114 26.5443 13.7571 27.0726 13.0085 27.4285C12.2599 27.7844 11.4382 27.9579 10.6102 27.9348C9.32828 27.9858 8.07027 27.5761 7.06222 26.7794C6.1083 25.9946 5.62518 24.8763 5.62518 23.4551C5.59891 22.5403 5.79605 21.6329 6.19941 20.8122C6.60277 19.9915 7.20009 19.2824 7.93921 18.7468C9.42549 17.6253 11.3241 17.0538 13.5981 17.0538C14.4145 17.0629 15.229 17.132 16.0353 17.2607L16.4907 17.3287V20.5356Z" fill="#171717"/>
<path d="M94.1321 8.71576C94.509 8.72249 94.8833 8.65075 95.2312 8.50506C95.5792 8.35937 95.8933 8.14288 96.1538 7.86925C96.4247 7.60762 96.6387 7.29245 96.7822 6.94363C96.9258 6.59481 96.9957 6.2199 96.9877 5.84257C96.9944 5.46487 96.9232 5.08986 96.7786 4.74109C96.6341 4.39232 96.4192 4.07733 96.1476 3.81589C95.8835 3.54752 95.5689 3.33446 95.2221 3.18904C94.8753 3.04363 94.5033 2.96875 94.1275 2.96875C93.7517 2.96875 93.3796 3.04363 93.0328 3.18904C92.686 3.33446 92.3715 3.54752 92.1073 3.81589C91.8348 4.07683 91.6192 4.39166 91.4741 4.74049C91.329 5.08933 91.2575 5.46459 91.2642 5.84257C91.2571 6.22107 91.3284 6.59692 91.4735 6.94632C91.6186 7.29572 91.8345 7.61105 92.1073 7.87234C92.3683 8.14595 92.683 8.36219 93.0315 8.50737C93.3801 8.65255 93.7548 8.72351 94.1321 8.71576Z" fill="#171717"/>
<path d="M148.878 28.6577L139.695 16.9456L135.898 20.653L142.33 28.6423H104.111V12.5679H96.452C93.3533 12.5679 90.7838 13.0745 88.8175 14.0724C86.8512 15.0703 85.4326 16.371 84.5433 17.9559C83.6467 19.5525 83.1811 21.3566 83.1924 23.1894C83.17 24.8185 83.5473 26.4281 84.291 27.8761L84.7064 28.6639H62.1384V3.83398H57.1719V33.5236H152.684L148.878 28.6577ZM99.1045 28.6577H96.452C93.4764 28.6577 91.3931 28.1603 90.0853 27.1408C89.457 26.684 88.9468 26.0826 88.5978 25.387C88.2487 24.6914 88.0708 23.9219 88.079 23.1431C88.0737 22.3606 88.252 21.5878 88.5995 20.8874C88.947 20.1869 89.4539 19.5785 90.0791 19.1113C91.39 18.0578 93.4456 17.5481 96.372 17.5481H99.1045V28.6577Z" fill="#171717"/>
<path d="M139.32 0.828125L134.563 5.4932H140.964L133.225 13.084V13.1242V19.7943L152.565 0.837393L139.32 0.828125Z" fill="#1ECAD3"/>
</g>
<defs>
<clipPath id="clip0_822_10278">
<rect width="152" height="110" fill="#171717" transform="translate(0.671875 0.828125)"/>
</clipPath>
</defs>
</svg>

